<svg xmlns="http://www.w3.org/2000/svg" width="32" height="32" viewBox="0 0 32 32"><g transform="translate(.5 .5)" fill="none" stroke-miterlimit="10" stroke-linejoin="round" stroke-linecap="round"><path data-cap="butt" data-color="color-2" stroke="#b02520" d="M17 6h10v7"/><path data-color="color-2" stroke="#b02520" d="M21 2l-4 4 4 4"/><path data-cap="butt" data-color="color-2" stroke="#b02520" d="M15 26H5v-7"/><path data-color="color-2" stroke="#b02520" d="M11 30l4-4-4-4"/><path stroke="#9e9e99" d="M13 14v-.983a2 2 0 0 0-.983-1.725C11.044 10.717 9.358 10 7 10c-2.388 0-4.064.713-5.026 1.288A1.998 1.998 0 0 0 1 13.007V14h12z"/><circle stroke="#9e9e99" cx="7" cy="4" r="3"/><path stroke="#9e9e99" d="M31 31v-.983a2 2 0 0 0-.983-1.725C29.044 27.717 27.358 27 25 27c-2.388 0-4.064.713-5.026 1.288A1.998 1.998 0 0 0 19 30.007V31h12z"/><circle stroke="#9e9e99" cx="25" cy="21" r="3"/></g></svg>