<svg xmlns="http://www.w3.org/2000/svg" width="64" height="64" viewBox="0 0 64 64"><g fill="#cacac4"><circle cx="50" cy="36" r="7"/><circle cx="14" cy="36" r="7"/><path d="M24.543 49.726C22.442 48.482 18.907 47 14 47c-4.972 0-8.489 1.478-10.564 2.717A5.026 5.026 0 0 0 1 54.014V60a1 1 0 0 0 1 1h24a1 1 0 0 0 1-1v-5.965a5.022 5.022 0 0 0-2.457-4.309zm36 0C58.442 48.482 54.907 47 50 47c-4.972 0-8.489 1.478-10.564 2.717A5.026 5.026 0 0 0 37 54.014V60a1 1 0 0 0 1 1h24a1 1 0 0 0 1-1v-5.965a5.022 5.022 0 0 0-2.457-4.309z"/><path data-color="color-2" d="M42.707 5.293a.999.999 0 0 0-1.414 0L28 18.586l-5.293-5.293a.999.999 0 1 0-1.414 1.414l6 6a.997.997 0 0 0 1.414 0l14-14a.999.999 0 0 0 0-1.414z"/></g></svg>