<svg xmlns="http://www.w3.org/2000/svg" width="64" height="64" viewBox="0 0 64 64"><g fill="#cacac4"><path data-color="color-2" d="M61 4H3a2 2 0 0 0-2 2v10h62V6a2 2 0 0 0-2-2zM7 12a2 2 0 1 1-.001-3.999A2 2 0 0 1 7 12zm7 0a2 2 0 1 1-.001-3.999A2 2 0 0 1 14 12zm7 0a2 2 0 1 1-.001-3.999A2 2 0 0 1 21 12z"/><path d="M1 18v40a2 2 0 0 0 2 2h58a2 2 0 0 0 2-2V18H1zm26 29a1 1 0 0 1-1 1H10a1 1 0 0 1-1-1V31a1 1 0 0 1 1-1h16a1 1 0 0 1 1 1v16zm15 0H32a1 1 0 1 1 0-2h10a1 1 0 1 1 0 2zm12-7H32a1 1 0 1 1 0-2h22a1 1 0 1 1 0 2zm0-7H32a1 1 0 1 1 0-2h22a1 1 0 1 1 0 2z"/></g></svg>