<svg xmlns="http://www.w3.org/2000/svg" width="24" height="24" viewBox="0 0 24 24"><g fill="#69696a"><path d="M7.05 22.946a5.98 5.98 0 0 1-4.243-1.754 6.007 6.007 0 0 1 0-8.485L6.02 9.586l1.394 1.435-3.203 3.111c-1.549 1.549-1.549 4.087.01 5.646a4.006 4.006 0 0 0 5.657 0l2.828-2.828c.755-.756 1.171-1.761 1.171-2.829s-.416-2.072-1.171-2.828L12 10.586l1.414-1.414.707.707c1.133 1.133 1.757 2.64 1.757 4.242s-.624 3.109-1.757 4.243l-2.828 2.828a5.978 5.978 0 0 1-4.243 1.754z"/><path data-color="color-2" d="M10.586 14.828l-.707-.707c-1.133-1.133-1.757-2.64-1.757-4.242s.624-3.109 1.757-4.243l2.828-2.828a6.005 6.005 0 0 1 8.485 0 6.007 6.007 0 0 1 0 8.485l-3.213 3.121-1.394-1.435 3.203-3.111c1.549-1.549 1.549-4.087-.01-5.646a4.006 4.006 0 0 0-5.657 0L11.293 7.05c-.755.756-1.171 1.761-1.171 2.829s.416 2.072 1.171 2.828l.707.707-1.414 1.414z"/></g></svg>