<svg xmlns="http://www.w3.org/2000/svg" width="64" height="64" viewBox="0 0 64 64"><g transform="translate(.5 .5)" fill="none" stroke-miterlimit="10"><path data-cap="butt" data-color="color-2" stroke="#b02520" d="M34 12h12a8 8 0 0 1 8 8v6"/><path data-color="color-2" stroke="#b02520" stroke-linecap="square" d="M42 4l-8 8 8 8"/><path data-cap="butt" data-color="color-2" stroke="#b02520" d="M30 52H18a8 8 0 0 1-8-8v-6"/><path data-color="color-2" stroke="#b02520" stroke-linecap="square" d="M22 60l8-8-8-8"/><path stroke="#9e9e99" stroke-linecap="square" d="M26 28v-1.965a4 4 0 0 0-1.967-3.449C22.088 21.435 18.716 20 14 20c-4.777 0-8.127 1.426-10.052 2.575A3.996 3.996 0 0 0 2 26.013V28h24z"/><circle stroke="#9e9e99" stroke-linecap="square" cx="14" cy="8" r="6"/><path stroke="#9e9e99" stroke-linecap="square" d="M62 62v-1.965a4 4 0 0 0-1.967-3.449C58.088 55.435 54.716 54 50 54c-4.777 0-8.127 1.426-10.052 2.575A3.996 3.996 0 0 0 38 60.013V62h24z"/><circle stroke="#9e9e99" stroke-linecap="square" cx="50" cy="42" r="6"/></g></svg>