<svg xmlns="http://www.w3.org/2000/svg" width="64" height="64" viewBox="0 0 64 64"><g fill="none" stroke-linecap="square" stroke-miterlimit="10"><path data-color="color-2" stroke="#b02520" d="M8.5 48.5h-6v-40h32m22 0h6v40h-40m0 12h20"/><path stroke="#9e9e99" d="M55.5 32.5h-20c-.6 0-1-.4-1-1v-28c0-.6.4-1 1-1h20c.6 0 1 .4 1 1v28c0 .6-.4 1-1 1zm-11-6h2m-25 28h-12c-.6 0-1-.4-1-1v-22c0-.6.4-1 1-1h12c.6 0 1 .4 1 1v22c0 .6-.4 1-1 1zm-7-6h2"/><path data-color="color-2" stroke="#b02520" d="M28.5 56.5h8v4h-8z"/></g></svg>