<svg xmlns="http://www.w3.org/2000/svg" width="64" height="64" viewBox="0 0 64 64"><g transform="translate(.5 .5)" fill="none" stroke-linecap="square" stroke-miterlimit="10"><path data-color="color-2" stroke="#b02520" d="M39 19H25a6 6 0 0 1 6-6h2a6 6 0 0 1 6 6z"/><circle data-color="color-2" stroke="#b02520" cx="32" cy="6" r="4"/><path data-color="color-2" stroke="#b02520" d="M16 28H2a6 6 0 0 1 6-6h2a6 6 0 0 1 6 6z"/><circle data-color="color-2" stroke="#b02520" cx="9" cy="15" r="4"/><path data-color="color-2" stroke="#b02520" d="M63 28H49a6 6 0 0 1 6-6h2a6 6 0 0 1 6 6z"/><circle data-color="color-2" stroke="#b02520" cx="56" cy="15" r="4"/><circle stroke="#9e9e99" cx="32" cy="36" r="9"/><path stroke="#9e9e99" d="M35 50h-6c-6.627 0-12 5.373-12 12h30c0-6.627-5.373-12-12-12z"/></g></svg>