<?xml version="1.0" encoding="UTF-8" standalone="no"?>
<svg width="397px" height="250px" viewBox="0 0 397 250" version="1.1" xmlns="http://www.w3.org/2000/svg" xmlns:xlink="http://www.w3.org/1999/xlink" xmlns:sketch="http://www.bohemiancoding.com/sketch/ns">
    <!-- Generator: Sketch 3.4.2 (15857) - http://www.bohemiancoding.com/sketch -->
    <title>bergs-logo</title>
    <desc>Created with Sketch.</desc>
    <defs></defs>
    <g id="Page-1" stroke="none" stroke-width="1" fill="none" fill-rule="evenodd" sketch:type="MSPage">
        <g id="bergs-logo" sketch:type="MSLayerGroup" fill="#000000">
            <path d="M93,50.6 C92.8,48.9 92.5,47.5 92.7,45.7 C92.9,44.3 92.6,43.3 91.9,42.1 C91.6,41.6 92.4,41 92,40.3 C91.9,40.1 91.5,39.9 91.5,39.7 C91.4,39.4 91.4,39 91.3,38.7 C91.2,38 91,37.4 90.7,36.8 C90.4,36.3 89.7,35.7 89.7,35.1 C89.7,33.8 88.6,33.1 87.8,32.2 C87,31.4 86.9,30.1 86.4,29.1 C85.8,27.9 84.9,27.2 83.9,26.2 C83,25.3 82.3,24.1 81.3,23.2 C79.3,21.3 77.2,19.4 74.9,17.9 C72.3,16.3 69.6,14.8 66.9,13.6 C61.3,11 55.4,9.2 49.2,8.6 C46,8.3 42.7,8.3 39.4,8.4 C37.7,8.4 36.1,8.5 34.4,8.6 C33.7,8.7 33,8.7 32.2,8.8 C31.9,8.3 31.5,7.7 31.2,7.2 C29.7,5.2 27.8,3.5 25.7,2.2 C24.6,1.5 23.4,0.9 22.2,0.3 C21.7,0.6 21.1,0.8 20.4,0.8 C19.9,0.8 19.2,0.6 18.8,0.9 C18.3,1.4 18.7,2.4 18.7,3 C18.8,3.7 18.8,4.5 18.7,5.2 C18.7,6.7 18.6,8.2 18.5,9.6 C18.4,11.2 17.7,12.7 17.4,14.3 C17.2,15.8 17.1,17.3 17,18.8 C17,19.6 16.9,20.4 16.7,21.2 C16.5,21.8 16.2,22.4 16.2,23.1 C16.2,23.8 16.2,24.4 16.1,25.2 C16,25.9 15.9,26.6 15.7,27.3 C15.1,30.4 14.4,33.4 13.9,36.4 C11.6,49.1 9.8,61.7 9.1,74.6 C8.9,77.8 8.9,81.1 8.7,84.3 C8.5,87.5 8.2,90.7 8.4,93.9 C8.6,100.2 7.8,106.4 7.3,112.7 C7.1,115.9 6.7,119.1 6.4,122.3 C6.2,124 6,125.6 6,127.3 L6,129.6 C6,130.2 5.7,130.6 5.4,131 C5.1,131.5 5.6,132.6 5.6,133.2 C5.6,133.9 5.2,134.4 5.1,135.1 C5.1,135.6 5.4,136.1 5.4,136.5 C5.4,136.8 5.2,137.1 5.1,137.3 C5,137.6 5.1,137.9 5.1,138.2 C5.2,138.9 5.4,139.6 5.4,140.4 C5.3,141 5.1,141.6 5.1,142.3 C5.1,142.9 5.3,143.4 5,143.9 C4.8,144.3 4.4,144.6 4.2,145.1 C4.1,145.4 4.4,145.8 4.2,146.2 C4.1,146.5 4,146.8 3.9,147.1 C3.7,147.8 3.5,148.6 3.4,149.3 C3.1,150.8 3,152.3 3.1,153.8 C3.2,154.6 3.4,155.2 3.1,155.9 C2.9,156.5 3,157.1 3,157.7 C3,159.1 2.7,160.2 2.3,161.5 C1.9,162.8 1.9,164.3 1.8,165.6 C2.1,166 2.4,166.4 2.4,166.9 C2.5,167.5 2.1,168 2.3,168.5 C3.1,171.3 2.3,174.6 2.4,177.5 C2.4,178.4 2.7,179.2 2.6,180.1 C2.6,180.8 2.3,181.6 2.2,182.3 C2.1,183 2,183.8 1.9,184.6 C1.9,185.3 1.7,186 1.6,186.7 C1.5,188.2 1.5,189.7 1.4,191.2 C1.3,191.9 1.3,192.6 1.1,193.2 C0.9,193.9 0.7,194.5 0.7,195.1 C0.7,195.9 1,196.6 1.1,197.4 C1.2,198.2 1,198.5 0.8,199.2 C0.4,200.4 1.1,201.7 1.3,202.8 C1.5,203.5 0.8,203.8 0.7,204.4 C0.6,204.7 0.8,204.9 0.7,205.3 C0.6,205.6 0.6,206 0.5,206.4 C0.4,207.7 0.4,209.2 0.6,210.5 C0.8,211.6 1.4,212.6 2.4,213.2 C3.4,213.9 4.4,213.7 5.6,214 C6.4,214.2 7.1,214.6 7.9,214.7 C8.6,214.8 9.3,214.8 10,214.9 C11.5,215 12.9,215.1 14.3,215.6 C15.1,215.8 15.8,216.2 16.6,216.4 C17.3,216.6 17.9,216.5 18.6,216.6 C20,216.8 21.4,217.3 22.7,217.8 C23.5,218.1 24.3,218.3 25.1,218.6 C25.7,218.8 26.4,218 26.9,217.6 C27.2,217.4 27.5,217.2 27.7,216.9 C27.7,216.6 27.8,216.4 27.9,216.1 C28,215.6 28.2,215.1 28.6,214.8 C29.1,214.3 29.5,214.2 29.8,213.6 C30.1,213.1 30.1,212.7 30.6,212.4 C31.6,211.6 32.1,210.5 32.9,209.5 C33.8,208.3 34.5,207.1 35.3,205.8 C35.5,205.4 35.7,205.6 36.1,205.7 C36.4,205.8 36.6,205.7 36.9,205.7 C37.3,205.7 37.8,205.9 38.2,205.8 C39.5,205.4 38.3,203.1 37.8,202.5 C37.5,202.1 38.4,201.7 38.7,201.3 C39,200.8 39.2,200.1 39.3,199.5 C39.5,198.8 39.3,198 39.6,197.3 C39.8,196.7 40.1,196.2 40.4,195.8 C41.2,194.7 41.5,193.9 41.2,192.6 C41.6,192.6 42,192.5 42.4,192.5 C42.2,192.1 41.9,191.7 41.7,191.3 C41.5,190.9 41.9,190.4 42.1,190.1 C42.4,189.7 43.2,188.7 43.7,188.7 C44.1,188.7 44,189.4 44.3,189.5 C44.6,189.7 45.1,189.3 45.3,189.1 C46.1,188.3 45.6,187.4 45.4,186.5 C45.8,186.4 46.2,186.3 46.6,186.3 C46.8,186.3 47.1,186.4 47.3,186.4 C47.6,186.3 47.6,186 47.7,185.7 C47.8,185.2 48.3,185.3 48.6,185.1 C49.2,184.8 48.8,184.2 48.6,183.7 C48.7,184 48.5,183.6 48.6,183.7 C48.5,183.6 48.4,183.6 48.4,183.5 C48.7,183.7 48.6,183.8 49,183.7 C49.2,183.7 49.3,183.6 49.4,183.4 C49.5,183.1 49.3,182.8 49.7,182.8 C50,182.8 50.4,182.8 50.7,182.7 C51.4,182.6 51.8,181.9 52,181.4 C52.3,180.8 52.1,180.1 52.6,179.8 C53.3,179.5 53.3,179.5 53.3,178.7 C53.3,178.2 53.4,177.7 53.4,177.2 C53.9,176.9 54.3,176.4 54.8,176.1 C55.5,175.8 55.6,175.5 55.9,174.9 C56.1,174.5 56.7,174.3 57,173.9 C57.2,173.7 57.2,173.3 57.4,173.1 C57.7,172.9 58.1,172.9 58.4,172.8 C58.9,172.7 60.1,172.5 60.1,172 C60.1,171.6 59.5,171.3 59.8,170.8 C59.9,170.6 59.7,170.3 59.8,170.2 C60,170 60.1,169.8 60.3,169.7 C60.8,169.1 61.3,169.3 62,168.9 C62.5,168.6 62.1,167.8 62.4,167.4 C62.8,166.8 63.3,165.9 64,165.5 C64.6,165.2 65.2,165.6 65.8,165.7 C65.8,165.2 65.6,164.7 65.6,164.3 C65.6,164 66.2,163.9 66.3,163.5 C66.5,162.8 66.8,163.2 67.3,163.5 C67.7,163.7 68,163.5 68.2,163.1 C68.4,162.7 68.6,162.5 68.9,162.1 C69.4,161.5 69.1,161.1 68.9,160.5 C68.7,159.9 68.9,159.3 69.2,158.7 C69.5,158.2 70.1,158.6 70,159.1 C69.8,159.7 70.4,159.4 70.6,159.2 C71,158.8 71.3,158.3 71.5,157.7 C71.7,157.1 71.7,156.4 71.7,155.8 C71.7,155.1 72.1,154.9 72.6,154.5 C73.1,154 72.9,153.6 72.8,152.9 C72.7,152.4 72.5,151.6 73.1,151.3 C74.1,150.7 74.4,150.2 74.8,149.2 C75,148.7 75.7,148.3 75.8,147.8 C75.8,147.4 75.7,146.9 75.8,146.5 C75.9,146.2 76.1,146.1 76.4,146 C77,145.7 77.4,145.5 77.9,145 C78.8,143.9 79.4,142.6 80.1,141.4 C80.4,140.8 80.7,140.4 80.8,139.7 C80.9,139.3 81.1,138.9 81.3,138.5 C81.9,137.3 81.6,136.5 81.4,135.2 C81.2,133.9 80.2,133.7 79.1,133.4 C77.9,133.1 77,132.4 76,131.8 C75,131.2 73.9,130.7 73.2,129.8 C72.7,129.2 72.1,129.2 71.4,129.1 C70.8,129 70.2,128.8 69.7,128.4 C68.6,127.6 67.3,126.8 66.1,126.2 C64.7,125.5 63.3,124.9 62,124.2 C60.8,123.6 59.7,123.3 58.3,123 C56.9,122.7 55.5,122.2 54.1,121.9 C52.9,121.7 51.7,121.7 50.7,121 C50.1,120.6 49.1,120.5 48.3,120.4 C47.6,120.2 46.9,120 46.2,119.8 C44.8,119.4 43.5,119.1 42.1,118.6 C41.3,118.3 38.5,117.6 40.5,116.7 C41.8,116.1 43.2,115.6 44.5,115 C45.8,114.3 47,113.6 48.3,113 C49.4,112.4 50.4,111.7 51.6,111.2 C52.8,110.7 53.6,109.7 54.3,108.7 C54.6,108.3 55.3,108.2 55.7,107.9 C56.2,107.6 56.6,107.2 57.1,106.9 C57.7,106.5 58.3,106.2 58.8,105.7 C59.3,105.2 59.7,104.7 60.1,104.2 C60.8,103.2 62.4,102.9 63.5,102.4 C64.5,101.9 65.4,101.2 65.6,100 C65.8,99 67.1,98.4 67.8,97.6 C68.8,96.6 69.9,95.6 70.9,94.7 C71.9,93.7 72.8,92.7 73.7,91.6 C74.6,90.5 75.8,89.8 76.3,88.4 C76.5,88 76.6,87.6 76.9,87.3 C77.3,87 77.8,87.2 78.1,86.8 C78.5,86.3 78.6,85.8 79.1,85.4 C79.6,85.1 80.1,84.9 80.4,84.5 C80.7,84.1 80.9,83.6 81.2,83.2 C81.5,82.8 81.9,82.5 82.1,82.1 C82.3,81.8 82.4,81.5 82.4,81.2 C82.6,81 82.9,80.8 83.1,80.5 C83.6,80 84,79.5 84.4,78.9 C85.1,77.8 86,76.8 86.8,75.8 C87.3,75.1 87.8,74.4 88.3,73.8 C88.7,73.3 89.3,72.9 89.6,72.2 C90.1,70.9 90.8,69.6 91.3,68.3 C91.9,66.9 92.3,65.5 92.7,64 C93,62.6 92.9,61.1 92.9,59.7 C93,58.1 92.9,56.5 92.8,54.9 C92.9,53.5 93.2,52.1 93,50.6 L93,50.6 Z M36.6,205.1 C36.2,204.8 36,204.8 36.4,204.4 C36.7,204.7 36.9,204.7 36.6,205.1 L36.6,205.1 Z M36.3,203.7 C35.9,203.3 36.3,202.9 36.8,203.2 L36.3,203.7 L36.3,203.7 Z M47.3,185.5 L47.2,185.4 L47.4,185.4 C47.3,185.4 47.3,185.4 47.3,185.5 L47.3,185.5 Z M42.9,132.3 C44.1,132.6 45.5,132.7 46.6,133.4 C47,133.7 47.4,134.1 47.6,134.5 C47.7,134.7 48.2,135.3 48.3,135.6 C48.4,136.2 47.2,135.2 47.5,136.1 C47.6,136.6 48.2,136.5 48.6,136.5 C49,136.5 49.3,136.6 49.5,136.9 C49.8,137.3 49.6,137.8 49.9,138.1 C50.4,138.6 51.2,138.6 51.8,138.8 C52.4,139 52.9,139.4 53.4,139.7 C54.3,140.4 55.3,141.3 55.8,142.4 C56.1,143 56.4,143.6 56.9,144 C57.3,144.4 57.7,144.5 57.9,145.1 C58.2,146.1 58,147.6 57.7,148.5 C57.5,149.2 56.9,149.7 56.7,150.3 C56.5,150.8 56.7,151.4 56.6,151.9 C56.5,152.4 56.1,152.9 55.6,153.2 C55.4,153.3 55.2,153.6 54.9,153.6 C54.6,153.6 54.5,153.9 54.4,154.2 C52.8,156.8 50.7,159.2 48.8,161.5 C48.4,162 47.8,162.5 47.8,163.2 C47.8,163.7 48,164.2 48.1,164.7 C48.3,165.6 47.6,166.1 47,166.6 C46.7,166.3 46.6,165.8 46.1,165.9 C45.8,166 45.5,166 45.2,166 C44.6,165.9 44.8,166.4 44.5,166.8 C44.3,166.7 44.1,166.4 43.9,166.5 C43.6,166.7 43.5,167.2 43.5,167.5 C43.3,168.2 42.6,168.8 42.1,169.3 C41,170.5 39.8,171.6 38.7,172.8 C37.7,174 36.7,175.1 35.6,176.3 C34.6,177.4 33.4,178.2 32.4,179.2 C31.7,180 31,180.7 30.6,181.7 C30.4,182.2 30.3,183.1 29.8,183.3 C29.2,183.6 28.5,183.8 28,184.3 C27.2,185 26.5,186.8 25.1,185.9 C24.5,185.5 24.2,184.7 23.9,184 C23.6,183.3 23.6,183 23.7,182.3 C24,182.7 24.4,183.1 24.7,183.5 C25.1,183.2 25.4,182.7 25.5,182.2 C25.6,181.7 25.4,181.1 25.5,180.6 C25.6,180.1 25.8,179.5 25.9,179 C26,178.2 25.6,177.7 25.3,177 C25.1,176.4 25,175.7 24.8,175.1 C24.3,173.8 24.8,172.3 25.2,171 C25.4,170.3 25.6,169.7 26.2,169.2 C26.6,168.9 26.6,168.7 26.4,168.2 C26.2,167.5 25.1,167.5 25.6,166.6 C25.8,166.1 25.6,165.5 26,165.1 C26.3,164.8 26.5,164.5 26.2,164.1 C25.8,163.5 26.2,163.1 26.4,162.6 C26.6,162 26.6,161.4 26.6,160.8 C26.6,160.1 26.6,159.3 26.4,158.6 C26.2,157.9 25.9,157.3 25.8,156.5 C25.6,155 25.7,153.5 25.7,152 C25.8,148.8 25.7,145.7 25.4,142.5 C25.2,141 24.8,139.3 25.2,137.8 C25.5,136.4 25.4,135 25.6,133.6 C25.7,132.8 25.9,132 25.8,131.1 C25.7,130.4 25.8,129.8 26,129.1 C26.2,128.5 26.4,128 26.4,127.3 C26.4,126.9 26.3,126.7 26.8,126.7 L27.8,126.7 C29.1,126.8 30.4,127.2 31.6,127.8 C32.7,128.4 33.7,129.2 34.9,129.6 C36.3,130 37.7,129.7 39,130.2 C40.4,131.3 41.5,132 42.9,132.3 L42.9,132.3 Z M80.5,61.2 C80.2,61.8 79.8,62.4 79.8,63.1 C79.8,63.7 79.6,63.9 79.2,64.3 C78.4,65.1 78,66.4 77.4,67.3 C76.5,68.6 75.8,70 75,71.3 C74.3,72.5 73.4,73.6 72.5,74.7 C70.7,77 68.9,79.4 66.9,81.6 C64.8,84 62.8,86.4 60.4,88.5 C59.2,89.5 57.9,90.2 56.6,91.1 C55.4,91.9 54.3,92.8 53.2,93.6 C50.9,95.5 48.5,97.1 45.8,98.4 C43.1,99.7 40.5,101.3 37.7,102.4 C35,103.5 32.3,104.5 29.7,105.5 C30,104.2 30.4,102.9 30.7,101.5 C31,100.1 31.1,98.7 31.3,97.2 C31.5,95.8 32,94.6 32.2,93.2 C32.4,91.8 32.3,90.5 32.7,89.2 C32.9,88.5 32.9,87.8 32.8,87.2 C32.7,86.8 32.5,86.6 32.8,86.3 C33,86.1 33.1,85.8 33.2,85.5 C33.7,84.3 33.1,83.2 33.1,82 C33.1,81.4 33.5,80.6 33.6,80 C33.7,79.3 33.8,78.6 33.9,77.8 C34.1,76.3 34.6,75 34.8,73.5 C35,72.1 34.6,70.5 35.2,69.2 C35.7,67.9 35.4,66.3 35.4,65 C35.4,64.1 35.5,63.2 35.5,62.4 C35.5,61.6 35.3,60.9 35.3,60.2 C35.3,59.4 35.4,58.7 35.3,57.9 C35.3,57.2 35,56.5 35.1,55.8 C35.2,55 35.4,54.4 35.3,53.6 L35.3,51.3 C35.3,50.6 35.4,49.8 35.4,49.1 C35.4,48.4 35.2,47.8 35.4,47.1 C35.7,45.5 35.4,44.1 35.5,42.5 C35.5,41 35.6,39.5 35.4,38 C35.3,36.4 34.9,34.8 34.8,33.2 C34.7,31.7 34.3,30.3 34.2,28.9 C34.1,27.4 34.7,25.9 34.6,24.4 C34.5,22.9 34.2,21.5 34.4,20 C34.6,18.7 34.1,17.4 34.2,16.1 C34.2,15.6 34.3,15 34.9,14.7 C35.8,14.3 37.1,14.5 38,14.5 C39.5,14.6 41.1,14.7 42.6,14.9 C44.2,15.1 45.8,15.2 47.3,15.6 C47.9,15.7 48.8,15.4 49.4,15.5 C50.2,15.6 50.9,15.7 51.7,15.8 C53.4,16 55.1,16.1 56.8,16.3 C58.2,16.4 59.4,17.1 60.6,17.7 C65.7,20.5 70.9,23.6 74.7,28 C76.5,30.1 78.1,32.5 79.2,35.1 C80.4,37.9 80.7,40.9 81.3,43.8 C81.6,45.2 82.2,46.9 81.9,48.3 C81.6,49.6 82.2,51.1 82.2,52.5 C82.1,55.3 81.6,58.5 80.5,61.2 L80.5,61.2 Z" id="Shape" sketch:type="MSShapeGroup"></path>
            <path id="Shape" sketch:type="MSShapeGroup" d="M36.3,203.7 C36.5,203.5 36.2,203.6 36.3,203.7 L36.3,203.7 L36.3,203.7 Z"></path>
            <path d="M29.7,105.5 C31,105 30,104.5 29.7,105.5 L29.7,105.5 L29.7,105.5 Z" id="Shape" sketch:type="MSShapeGroup"></path>
            <path id="Shape" sketch:type="MSShapeGroup" d="M36.4,204.4 C36.3,204.5 36.5,204.5 36.4,204.4 L36.4,204.4 L36.4,204.4 Z"></path>
            <path id="Shape" sketch:type="MSShapeGroup" d="M23.6,182.7 C23.6,183.3 24.1,183.3 23.6,182.7 L23.6,182.7 L23.6,182.7 Z"></path>
            <path d="M260.5,146.4 C260.9,146 261.1,146.1 261.5,146.2 C262.7,146.4 262.9,146.3 263.5,145.1 C263.6,144.9 263.7,144.7 263.9,144.4 C263.2,143.7 262.6,143 261.9,142.3 C260.6,142 259.7,140.8 258.3,140.6 C258.2,140.9 258.2,141.1 258.2,141.3 L258.2,141.3 L258.2,141.4 C258.3,141.4 258.4,141.5 258.5,141.5 L258.3,141.7 C258.3,141.6 258.3,141.5 258.2,141.4 L258.1,141.4 C258.1,141.4 258.1,141.4 258.1,141.3 C257.8,141.2 257.4,141.2 257.3,141 C257,140.4 256.8,139.7 256.5,139 C256,138.7 255.5,138.4 255.1,138.1 C254.7,137.8 254.5,137.2 253.8,137.3 C253,137.4 253.4,136.3 252.9,136.1 C252.5,135.9 252.2,135.7 251.9,135.5 C251.8,135.4 251.6,135.5 251.5,135.6 C251.4,135.9 251.3,136.2 251.2,136.5 C250.6,136.1 250.6,136.1 250.7,135.9 C251,135.3 251.6,134.8 251.5,133.9 C250.8,132.8 250.3,131.6 249.5,130.7 C247.9,129 246.2,127.5 244.6,125.8 C244.1,125.2 243.4,124.8 243.1,124.1 C243,123.8 242.6,123.5 242.2,123.3 C241.7,123 241.2,122.7 240.7,122.5 C240.1,122.3 239.6,122 239.3,121.3 C239.1,120.9 238.7,120.6 238.3,120.3 C237.3,119.6 236.4,118.6 235.2,118.1 C234.1,117.6 233.2,116.6 232.1,116 C231.2,115.5 230.6,114.9 230.1,114 C229.5,113.1 228.9,112 228,111.5 C226.1,110.5 224.7,108.8 222.6,108.1 C222.4,108 222.2,107.8 222.1,107.6 C221.4,106.4 220.1,105.8 219,105.1 C218.7,104.9 218.3,104.7 218,104.5 C216.7,103.2 215.1,102.2 213.5,101.3 C211.9,100.4 210.7,99.2 209.5,98 C209.6,97.8 209.7,97.7 209.8,97.6 C211.3,95.9 213.1,94.3 214.2,92.3 C214.3,92.1 214.5,92 214.7,91.9 C216,91.1 216.3,89.9 216,88.6 C215.8,87.7 216,87.1 216.8,86.6 C217.1,86.4 217.5,86.2 217.8,86 C218.4,83 219.1,80 219.7,77.1 C219.8,76.6 219.7,75.9 219.9,75.5 C220.5,74.4 220.3,73.3 220.2,72.2 C220.1,71.3 219.7,70.4 219.5,69.5 C219.8,68.7 220.1,67.9 220.4,67.3 C220.1,66.5 219.7,65.9 219.5,65.2 C218.7,63.1 218.3,60.7 216.9,58.8 C216.8,58.7 216.7,58.5 216.7,58.4 C216.5,57.5 216.4,56.7 216.2,55.8 C216,55 215.5,54.2 215.6,53.5 C215.7,52.6 215.3,51.8 215.4,51 C215.4,50.6 215.3,50.3 215,50 C213.2,47.8 211.3,45.6 209.4,43.5 C209.1,43.1 208.7,42.9 208.3,42.5 C207.9,42.1 207.5,41.7 207.2,41.3 C206.2,39.6 204.7,38.4 203.2,37.3 L202,37.3 C200.9,37.4 199.9,36.5 198.7,36.9 C197.6,37.2 196.6,37.6 195.5,37.9 C194.5,38.2 193.6,38.6 192.7,39.2 C190.6,40.5 188.6,42 186.2,42.7 C185.7,42.8 185.3,43.1 184.9,43.4 C183.9,44 183,44.6 182,45.1 C181.5,45.4 181.1,45.7 180.9,46.3 C180.3,47.9 179.6,49.4 179.2,51 C178.9,52.2 178.6,53.3 178.2,54.5 C176.9,58.1 176.2,61.9 175.5,65.7 C175.4,66.4 175.4,67.2 175.2,67.8 C174.6,69.8 174.4,71.9 174.3,73.9 L174.3,75.6 C174.4,78.1 173.8,80.5 173.8,83 C173.3,84.1 173.4,85.3 173.4,86.5 C173.4,88 173.5,89.5 173.5,91 C173.5,91.9 173.4,92.8 173.6,93.6 C174,95.3 173.8,96.9 174,98.6 C174.1,99.5 174,100.5 174,101.5 C174.1,103.1 173.5,104.3 172.1,105.1 C171.8,105.3 171.5,105.4 171.3,105.6 C170.3,106.4 170.5,108.3 171.3,108.8 C171.8,109.2 172.3,109.5 172.9,109.9 C173.7,110.5 174,111.2 174,112.2 L174,116.7 C174.1,123 173.9,129.3 174.3,135.6 C174.5,138.7 175.3,141.7 175.9,144.7 C175.9,144.8 176.1,144.9 176.2,145 L177.3,145 C176.7,145.5 176.3,145.9 175.9,146.3 L176.4,146.8 C176.5,147 176.6,147.2 176.7,147.3 C176.5,147.6 176.3,147.8 176.1,148 C177.1,148.1 177.1,148.1 177.5,146.8 C177.8,147.2 178.1,147.5 178.1,147.8 C178.2,148.3 178.2,149 177.9,149.4 C177.5,150.2 178.1,150.6 178.3,151.1 C178.2,151.3 178,151.5 177.9,151.6 C178.3,152.1 178.6,152.6 178.9,153.1 C178.8,153.7 178.2,154.2 178.7,154.8 C179.1,155.3 179,155.9 179,156.4 C179,157.3 179.2,158.1 179.7,158.9 C179.9,159.2 180,159.5 180.1,159.8 C180.5,160.4 180.1,160.8 179.8,161.4 C180.2,161.6 180.6,161.9 180.9,162.2 C181.8,163.1 182.2,163.2 183.1,162.5 C183.9,161.8 184.7,160.9 185.5,160.1 C185.9,159.6 186.3,159.1 186.7,158.6 C188,157.5 188.5,156 188.7,154.4 C189,152.3 189.3,150.3 189.2,148.2 C189.2,147.6 189.3,146.9 189.4,146.3 C189.7,143.8 190,141.4 190,138.9 C190,138.2 190.5,137.8 190.8,137.3 C190.2,136.9 190.1,136.4 190.3,135.8 C190.5,135.2 190.5,134.6 190.2,134 C189.8,133.2 189.8,132.3 190.3,131.5 C190.5,131.1 190.5,130.6 190.6,130.1 C190.7,128.9 190.7,127.7 190.7,126.5 C190.5,122.6 191.1,118.7 191.8,114.9 C191,113.4 191,113.4 191.1,112.2 C191.1,111.5 191.2,110.8 191.3,110 C191.4,109.4 191.8,109 192.4,108.9 C192.8,108.9 193.3,108.8 193.6,109 C194.3,109.5 195.1,109.6 195.8,109.9 C197.5,110.8 199.4,111.3 200.5,113 C200.7,113.2 201,113.5 201.3,113.5 C202.4,113.5 203.2,114.2 204.1,114.8 C205.6,115.8 207,117 208.7,117.8 C210,118.4 211.3,119.3 212.3,120.5 C213.2,121.5 214.1,122.4 215.4,123 C216,123.3 216.4,123.7 216.9,124.1 C218.4,125.3 219.7,126.7 221.4,127.7 C222.8,128.5 223.9,129.4 224.7,130.7 C224.8,130.9 225,131.1 225.2,131.2 C226.9,132.3 228,134.1 229.8,135.1 C230,135.2 230.1,135.5 230.3,135.6 C230.6,136 230.9,136.3 231.2,136.6 C232.3,137.6 233.5,138.5 234.6,139.5 C235.1,139.9 235.5,140 236.1,140 C236.4,140 236.7,140.2 236.8,140.5 C237.2,141.2 237.8,141.7 238.5,142.1 C239.7,142.8 241,143.4 242.2,144.2 C242.9,144.6 243.7,145 244.3,145.7 C245.1,146.7 246.3,147.2 247.6,147.6 C248.5,147.9 249.4,148.1 250.4,148.4 C251.5,148.7 252.6,148.9 253.7,148.5 C255.3,147.9 256.9,147.6 258.5,147.3 C259.1,147.3 259.9,147 260.5,146.4 L260.5,146.4 Z M201.6,79.9 C201.2,80.8 200.9,81.7 200.1,82.3 C199.9,82.5 199.7,82.8 199.6,83.1 C199.1,84.3 198.3,85.3 197.8,86.4 C197.2,87.9 195.9,88.9 195,90.2 C194.7,90.6 194.1,90.9 193.3,91.5 C193.3,90.2 193.4,89.4 193.3,88.5 C193.2,87.8 193.8,87.2 193.5,86.4 C193.2,85.7 193.8,85.2 193.8,84.6 C194,82.7 194,80.8 193.6,78.9 C193.4,78 193.3,77.2 193.6,76.3 C193.8,75.8 193.7,75.2 193.8,74.7 L193.8,73.3 C193.8,71.7 194.2,70 194.1,68.4 C194,66.8 194.5,65.3 194.7,63.7 C194.7,63.5 194.8,63.4 194.7,63.2 C194.3,62.3 194.2,61.4 195.1,60.6 C195.3,60.5 195.2,60 195.2,59.7 C195.2,59.1 195.3,58.5 195.3,57.6 C195.8,58 196.1,58.2 196.3,58.5 C196.8,59.2 197.3,60 197.7,60.7 C198.7,62.8 199.6,64.9 200.6,66.9 C201.6,69 201.6,71.2 201.9,73.4 C202,74 201.9,74.6 202.1,75.1 C202.8,76.8 202.2,78.4 201.6,79.9 L201.6,79.9 Z M237.8,140.4 C237.6,140.2 237.4,140.1 237.2,139.9 C237.5,139.8 237.7,139.7 237.7,139.8 C237.8,139.9 237.9,140.1 237.9,140.3 C237.9,140.2 237.8,140.3 237.8,140.4 L237.8,140.4 Z M247,131.6 C246.9,131.6 246.7,131.4 246.7,131.3 C246.7,131.2 246.8,131 246.9,131 C247,131 247.2,131.1 247.7,131.2 C247.4,131.4 247.2,131.5 247,131.6 L247,131.6 Z M249.8,132.7 L249.8,132.6 L249.9,132.7 L249.8,132.7 L249.8,132.7 Z M252.9,139.6 L252.9,139.5 C252.8,139.5 252.7,139.4 252.6,139.4 C252.9,139.2 252.9,139.4 252.9,139.5 C252.9,139.5 252.9,139.5 252.9,139.6 C253,139.6 253.1,139.6 253.1,139.7 C253,139.6 253,139.6 252.9,139.6 L252.9,139.6 Z" id="Shape" sketch:type="MSShapeGroup"></path>
            <path d="M154.4,173.5 C154.6,172.6 154.6,171.7 154,171 C153.3,170.9 152.6,171 151.9,170.7 C151,170.4 150.3,170.7 149.7,171.1 C148.8,171.7 147.8,172.3 146.9,172.9 C146.2,173.3 145.6,173.8 145,174.4 C143.5,176.1 141.7,177.4 139.7,178.5 C136.1,180.6 132.5,182.7 128.9,184.7 C127.9,185.3 126.7,185.7 125.6,186.2 C123.7,187.1 122,186.4 120.3,185.6 C119.9,185.4 119.6,185 119.3,184.6 C117.5,181.9 117,178.9 117.6,175.7 C117.7,175 117.8,174.3 117.9,173.6 C118,172.1 117.9,170.6 118.2,169.1 C118.3,168.4 118.2,167.7 118.1,167 C118,165.9 117.9,164.8 117.9,163.7 C117.8,160.9 117.8,158.1 117.8,155.3 C117.8,154.2 117.7,153.1 117.9,152 C118.7,151.4 119.5,150.9 120.2,150.4 C120.8,150.5 121.3,150.6 121.8,150.7 C122.7,149.6 121.2,149.1 121.4,148.3 C122.7,147.6 122.7,147.6 123.3,146.6 C123.5,146.3 123.6,146 123.7,145.8 C124,145.3 124.3,145.2 124.9,145.3 C125.3,145.4 125.7,145.5 126,145.6 C126.3,145.1 126.5,144.6 126.9,144.4 C128.2,143.7 129.6,142.9 131,142.5 C132.1,142.1 133.3,141.9 134.1,141 C134.3,140.8 134.7,140.8 135,140.7 C136,140.4 137,140.1 138,139.9 C139.2,139.6 140.4,139.5 141.5,139.2 C142.6,138.8 143.7,138.3 144.9,138.3 C144.4,137.1 145.5,136.7 145.7,135.7 C145.2,134.1 144.3,133.6 142.8,133.7 C140.6,133.8 138.3,133.6 136.1,133.6 C135.6,133.6 135.1,133.6 134.7,133.5 C133.5,133 132.3,133.2 131.2,133.5 C129.9,133.9 128.7,133.9 127.4,133.8 C126.7,133.8 126,133.8 125.3,134 C124.2,134.3 123.1,134.4 122,134.5 C121.3,134.5 120.7,134.2 120.2,134.1 C119.7,133.3 119.3,132.6 118.8,131.9 L118.8,131.3 C119.2,129.3 119.8,127.3 119.8,125.2 C119.8,124.4 120.2,123.5 120,122.6 C119.8,121.8 120,120.9 119.8,120 C119.5,118.2 119.4,116.4 119.6,114.5 C119.9,112.4 119.9,110.3 120,108.1 C120.2,105.2 120.1,102.4 120,99.5 C120,98.4 120,97.3 120.6,96.3 C120.8,96 120.9,95.6 121,95.2 C121.2,94.3 121.3,93.5 121.4,92.6 C121.5,91.7 122,91.1 122.8,90.9 C123.1,90.8 123.4,90.7 123.7,90.6 C126.7,90.1 129.4,88.6 132.5,88.5 C132.7,88.5 132.8,88.4 132.9,88.3 C135.4,87.3 138,86.6 140.5,85.5 C141.9,84.9 143.5,84.3 145.1,84.3 C145.6,84.3 146,84.1 146.5,84 C147.3,83.7 148,83.2 148.8,82.8 C150.5,82 151.8,80.7 152.9,79.3 C153.2,78.9 153.3,78.5 153.5,78 C153.2,77.7 153,77.4 152.8,77.3 C151.4,76.4 149.8,75.8 148.1,75.8 C144.3,75.7 140.5,76.1 136.7,76.8 C133,77.5 129.4,78.6 126,80.2 C125,80.7 123.9,81 122.9,81.4 C122.4,81.6 122,81.7 121.6,81.3 C121.2,80.4 121,79.5 121.1,78.5 C121.1,77.9 121.1,77.4 121,76.8 C120.2,73.9 118.1,72.2 115.3,71.1 C114.9,70.9 114.3,70.9 113.9,70.9 C112.2,71.1 110.4,70.7 108.7,71.3 C108.4,71.4 107.9,71.4 107.5,71.3 C106.6,71.2 105.9,71.6 105.3,72 C104.5,72.6 103.7,73.3 102.8,74 C103,74.7 103.3,75.5 103.3,76.2 C103.3,78.3 103.4,80.3 103,82.4 C102.7,84.1 102.6,85.8 102.4,87.6 C102.2,90.1 101.9,92.5 101.7,95 C101.7,95.4 101.6,95.8 101.6,96.2 C101.3,98.3 101.1,100.5 100.8,102.6 C100.6,104.7 100.4,106.9 100.2,109 C99.8,112.6 99.4,116.3 99,119.9 C98.8,121.6 98.8,123.4 98.7,125.2 C98.6,127 97.9,128.8 98.3,130.6 C97.8,131.3 98.1,131.9 98.4,132.6 C98.7,133.3 98.7,134.1 98.8,134.9 C98.1,135.7 98.8,136.8 98.4,137.7 C97.1,138.7 95.9,139.7 96.8,141.7 C97,142.2 96.8,142.9 96.9,143.6 C96,144.4 95.8,145.4 95.3,146.4 C95.2,146.5 95.1,146.6 94.9,146.7 C94,147.4 93.6,148.2 93.4,149.7 C94,150.5 95.1,149.8 96,150.5 C96.1,150.9 96.2,151.5 96.2,152 C96.2,152.7 97.4,152.6 97.2,153.4 C98,154.5 98.3,155.7 98.3,156.9 C99.3,157.4 99.9,158.1 100,159.2 C100.2,160.9 100.3,162.7 100.4,164.4 C100.4,164.5 100.3,164.7 100.3,164.8 C100.1,164.8 100,164.7 99.8,164.7 C99.8,164.7 99.7,164.8 99.7,164.9 C100,165.8 100.4,166.6 100.7,167.5 C100.9,168.1 101.1,168.8 100.7,169.4 C100.1,170.2 100.7,170.8 100.9,171.4 C100.5,171.7 100,172 99.6,172.4 C99.3,172.7 99.1,173 99.3,173.5 C99.9,173.8 100.6,174.2 101.4,174.6 L101.4,176.4 L100.4,176.4 C99.7,177.2 100.4,177.4 100.8,177.8 C100.4,179 100.4,179 101.2,180 C101.5,180.4 101.5,180.7 101.5,181.1 C101.4,181.7 101.3,182.3 101.2,182.9 C101.6,183.2 102,183.4 102.2,183.8 C103.1,185.1 103.8,186.4 104.1,187.9 C104.3,188.5 104.4,189.2 104.8,189.6 C105.5,190.4 106,191.3 106.6,192.1 C107,192.7 107.6,193.1 108.2,193.5 C108.5,193.7 109,193.7 109.3,193.6 C109.4,193.6 109.5,193.1 109.6,193 C110.4,193.1 111.1,193.2 111.8,193.2 C112.2,193.2 112.5,193.2 112.9,193.3 C114.2,193.5 114.9,194.5 116.1,195.2 C116.7,194.6 117.6,194.6 118.3,194.8 C120.4,195.6 122.4,195.3 124.4,194.9 C125,194.8 125.7,194.8 126.3,194.7 C127.7,194.5 129.2,194.4 130.6,194.2 C133,193.7 135.3,193.1 137.3,191.7 C138.3,191 139.3,190.5 140.4,189.8 C144.1,187.6 147.5,184.9 150.5,181.7 C152.6,179 153.8,176.4 154.4,173.5 L154.4,173.5 Z" id="Shape" sketch:type="MSShapeGroup"></path>
            <path d="M396.6,41.6 C396.4,41.2 396.5,40.7 396.4,40.2 C396.2,39.1 395.7,38 395,37.2 C394.2,36.3 393.2,35.6 392.3,34.8 C391.7,34.3 391,33.7 390.3,33.5 C388.1,32.9 386.2,31.8 383.9,31.5 C382.6,31.3 381.4,31 380.1,31 C378.2,31 376.3,31 374.4,30.6 C373.9,30.5 373.3,30.6 372.8,30.7 C372,30.8 371.2,30.8 370.4,30.7 C369.2,30.4 368,30.4 366.8,30.6 C366,30.7 365.2,30.6 364.5,30.6 C363.9,30.6 363.2,30.5 362.6,30.5 C361.1,30.5 360,31.1 359.5,32.7 C359.4,33.2 359.1,33.5 358.7,33.8 C357.8,34.4 357,35.2 356.5,36.2 C355.7,37.7 355.1,39.4 354.4,41 C354.2,41.4 354.2,41.8 354,42.1 C352.5,44.1 351.8,46.5 350.8,48.8 C350.6,49.3 350.5,49.8 350.8,50.2 C351.4,50.9 351.2,51.6 351.1,52.4 C350.9,53.9 350.8,55.4 350.8,56.9 C350.8,58.1 350.8,59.3 351,60.5 C351.4,62.1 351.4,63.8 351.5,65.5 C351.5,66.1 351.5,66.8 351.7,67.4 C352,69.1 352.6,70.8 353.3,72.3 C353.5,72.7 353.8,73 353.8,73.4 C353.9,74.8 354.5,76 355.4,77 C356,77.6 356.5,78.4 356.9,79.1 C358,81.4 359.7,83.4 361.3,85.3 C361.9,86 362.4,86.9 363.1,87.5 C365.5,90 367.8,92.7 370.1,95.4 C370.4,95.8 370.7,96.1 371,96.5 C372,97.9 373,99.4 374.1,100.7 C376.3,103.3 377.8,106.2 379.1,109.4 C379.2,109.8 379.4,110.1 379.5,110.5 C379.6,110.8 379.7,111.1 379.7,111.4 C379.3,114.3 378.2,116.7 375.4,118.1 C375.1,118.3 374.7,118.5 374.5,118.8 C373.7,119.6 372.7,120.2 371.7,120.5 C369.5,121.2 367.3,121.8 365,122.3 C364.5,122.4 363.9,122.4 363.3,122.4 C362.5,122.4 361.7,122.5 360.8,122.5 C360,123.9 358.7,124.4 357.2,124.5 C356.9,124.5 356.5,124.5 356.2,124.6 C355.9,124.7 355.5,124.8 355.4,125 C355.2,126 354.1,125.8 353.6,126.6 C355.1,128.3 355.8,128.8 357.6,129.7 C358.9,130.4 360.4,130.7 361.7,131.6 C362.1,131.9 362.6,131.9 363.1,132 C364.4,132.2 365.8,132.3 367.1,132.7 C368.4,133 369.6,133.1 370.9,133.1 C372.1,132.2 373.6,132.9 374.8,132.5 C375.2,132.4 375.5,132.2 375.9,132.1 C376.4,131.9 377,131.8 377.5,131.7 C379.1,131.5 380.4,130.8 381.6,129.8 C382.2,129.3 382.8,128.7 383.5,128.4 C384.4,127.9 385,127.1 385.4,126.3 C386.2,124.7 387,123 388,121.5 C388.9,120.1 389.1,118.5 389.5,117 C389.7,116 389.7,114.9 389.5,113.9 C389.4,113.2 388.8,112.6 388.7,111.9 C388.5,110.1 387.4,108.9 386.4,107.5 C385.8,106.7 385.2,105.8 384.8,104.8 C383.9,102.6 382.7,100.5 381.9,98.3 C381.8,98 381.6,97.7 381.4,97.5 C380.5,96.2 379.5,94.9 378.6,93.6 C378.3,93.2 377.9,92.7 377.8,92.1 C377.8,91.8 377.6,91.5 377.4,91.2 C376.6,90.1 375.8,89 375,88 C373.9,86.6 372.8,85.1 371.8,83.5 C370.7,81.7 370,79.8 369.2,77.9 C368.7,76.8 368.6,75.4 368.3,74.2 C368.8,72.8 368.5,71.3 368.7,69.9 C368.9,67.4 369.2,65 369.1,62.5 C368.9,59.3 369.8,56.3 370.7,53.4 C370.8,53 371,52.4 371.4,52.2 C372.1,51.6 372.3,50.8 372.6,49.9 C373.4,47.7 374.1,45.5 375.9,43.9 C376.2,42.9 377.3,42.3 377.6,41.4 C378,40.3 378.7,40.1 379.6,40 C380.1,39.9 380.7,40 381.3,40 C382.4,40 383.3,40.3 384.1,41.2 C384.4,41.5 384.9,41.9 385.3,41.9 C386.2,42 386.7,42.5 387.4,43 C389.7,44.7 392.6,46.3 394.7,47.1 C395.8,46.4 396.4,45.3 396.8,44 C396.9,43.3 396.9,42.5 396.6,41.6 L396.6,41.6 Z" id="Shape" sketch:type="MSShapeGroup"></path>
            <path d="M57.5,175.2 C57.3,175.2 57.1,175.4 57,175.6 C56.9,175.8 57.1,176 57.1,176.3 C57.3,176 57.5,175.9 57.6,175.7 C57.8,175.5 57.8,175.2 57.5,175.2 L57.5,175.2 Z" id="Shape" sketch:type="MSShapeGroup"></path>
            <path id="Shape" sketch:type="MSShapeGroup" d="M273.8,124.7 C273.9,124.7 274.1,124.8 274.1,124.8 C274.2,124.7 274.3,124.6 274.3,124.5 C274.2,124.5 274,124.4 273.9,124.4 C273.8,124.4 273.8,124.6 273.8,124.7 L273.8,124.7 Z"></path>
            <path d="M276,128.5 L275.6,128.1 C275.5,128.1 275.3,128.2 275.2,128.2 C275.4,128.4 275.6,128.6 275.7,128.8 C275.7,128.7 275.8,128.6 276,128.5 L276,128.5 Z" id="Shape" sketch:type="MSShapeGroup"></path>
            <path id="Shape" sketch:type="MSShapeGroup" d="M282.6,106 L282.6,106 L282.6,106 L282.6,106 L282.6,106 Z"></path>
            <path id="Shape" sketch:type="MSShapeGroup" d="M282.8,106.7 C282.9,106.6 283,106.5 283,106.4 C282.9,106.3 282.8,106.1 282.7,106 L282.7,106.5 C282.7,106.6 282.8,106.7 282.8,106.7 L282.8,106.7 Z"></path>
            <path id="Shape" sketch:type="MSShapeGroup" d="M280.8,106.9 C280.8,106.9 280.7,106.9 280.7,106.8 C280.7,106.9 280.7,106.9 280.8,106.9 L280.8,106.9 L280.8,106.9 Z"></path>
            <path id="Shape" sketch:type="MSShapeGroup" d="M280.5,106.7 C280.6,106.7 280.6,106.8 280.7,106.8 L280.7,106.7 L280.5,106.7 L280.5,106.7 Z"></path>
            <path id="Shape" sketch:type="MSShapeGroup" d="M177.4,154.5 L177.4,154.5 C177.4,154.6 177.4,154.6 177.4,154.5 C177.4,154.6 177.4,154.6 177.4,154.5 L177.4,154.5 Z"></path>
            <path id="Shape" sketch:type="MSShapeGroup" d="M177.8,154.3 L177.7,154.4 C177.7,154.4 177.7,154.4 177.8,154.3 L177.8,154.3 L177.8,154.3 Z"></path>
            <path id="Shape" sketch:type="MSShapeGroup" d="M177.7,154.4 C177.6,154.4 177.6,154.4 177.5,154.5 L177.4,154.6 C177.4,154.6 177.5,154.6 177.6,154.5 C177.6,154.4 177.7,154.4 177.7,154.4 L177.7,154.4 Z"></path>
            <path id="Shape" sketch:type="MSShapeGroup" d="M177.2,153.3 L177.4,153.3 L177.3,153.1 L177.2,153.3 Z"></path>
            <path d="M300,160 C300.1,158.3 298.6,159.2 297.9,158.6 C298.1,158.2 298.1,157.8 298.3,157.7 C299.6,157 299.6,155.7 299.5,154.6 C299.4,153 298.5,151.5 299.2,149.8 C299.3,149.7 299,149.4 298.8,149.2 C295.6,143.5 292.9,137.6 290.9,131.4 C290.8,131 290.6,130.5 290.3,130.1 C289.1,128.5 287.8,127 288.3,124.8 C287.5,124.4 286.8,124 285.9,123.5 C286.1,123 286.3,122.5 286.5,121.9 C286.7,121.3 286.8,120.7 287,120 C286,120.1 285.3,120.2 284.4,120.3 C285,119.5 285.5,118.9 286,118.2 C286.1,117.9 285.9,117.1 285.4,116.7 C284.8,116.2 284.9,115.8 284.8,115.3 C284.5,113.6 284.4,111.7 282.8,110.6 C283.7,110.3 284.3,109.4 283.6,109.1 C282.9,108.7 282.8,108.2 282.4,107.8 C281.9,107.3 281,107.3 280.3,107 C280.1,106.9 280,106.7 279.7,106.5 C279.9,106.2 280,106.2 280,106.1 C280.2,106 280.5,106 280.7,106 C282.6,106 282.9,105.8 282.6,103.9 C282,99.9 281.5,95.9 280.8,92 C279.5,84.9 279,77.8 278.9,70.6 C278.8,66.6 278.8,62.6 278.7,58.7 C278.7,57.1 278.8,55.5 278.9,54 C279,52.2 279.1,50.3 279.2,48.5 C279.3,44.9 279.4,41.3 280.9,37.9 C281.9,35.8 284.9,33.7 286.8,34.3 C291.1,35.5 295,33.8 299.1,33.1 C297.7,30.5 296.5,29.2 294.3,28.6 C289.3,27.2 284.5,28 280,30.3 C278,31.4 275.9,32.5 273.7,32.7 C271.7,32.8 269.8,33.4 267.9,33.9 C266.6,34.3 265.7,35.1 265.8,36.7 C265.8,37.8 265.4,38.9 265.3,40 C264.9,42.9 264.3,45.8 264,48.7 C263.6,54.1 263.3,59.5 263,64.9 C262.7,70.3 263.4,75.6 263.9,80.9 C264.1,84 265.2,86.8 265.4,89.9 C265.6,93.2 266.4,96.5 267,99.9 C267.6,103.8 268.9,107.5 269.7,111.3 C270,112.6 270.6,113.4 271.5,113.7 C271.3,114.3 270.9,114.8 271,115.2 C271.2,116.4 271.6,117.6 271.9,118.9 C272.5,118.7 273,118.6 273.6,118.4 C273.4,118.9 273.3,119.5 273.1,119.6 C272.7,119.8 272.1,119.7 272.3,120.4 C272.5,121.1 273,120.6 273.4,120.7 C274.4,120.9 275.4,121.4 277,121.9 C275.8,122.5 275.1,122.8 274.3,123.2 C276,124.3 276.9,125.6 276,127.5 C276.5,127.9 276.8,128.1 277.1,128.4 C277.4,127.6 277.6,126.9 278,125.8 C278.5,126.7 278.7,127.2 278.9,127.7 C278.4,128.7 277.2,129.3 277.1,130.7 C276.7,130.5 276.3,130.2 275.6,129.9 C275.9,131 276,131.9 276.3,132.7 C278.4,137.4 280.4,142.2 282.8,146.8 C283.9,148.9 285.6,150.6 287,152.5 C289.5,155.9 292.7,158.5 296.6,160.3 C298.1,160.9 298.9,160.8 300,160 L300,160 Z M277.2,118.7 C277.4,119.1 277.5,119.4 277.8,120 C276.1,119.9 277.2,119.2 277.2,118.7 L277.2,118.7 Z M282.4,122.9 C282.1,122.4 281.9,121.9 281.7,121.5 C283,121.4 283.2,121.8 282.4,122.9 L282.4,122.9 Z M280.5,113.6 C280.9,113 281.4,112.4 282.1,111.4 C282.5,111.9 282.7,112.2 283.1,112.6 C282.3,113.3 281.7,114.1 280.5,113.6 L280.5,113.6 Z" id="Shape" sketch:type="MSShapeGroup"></path>
            <path d="M342.4,100.1 C339.3,97.8 335.8,97.1 332.3,98 C330.3,98.5 328.2,98.8 326.3,99.6 C325.8,99.8 325.4,100.2 324.8,100.6 C324.4,100 324.1,99.4 322.9,100 C321.4,100.8 319.5,100.9 318.1,99.7 C316.9,98.6 315.8,98.7 314.4,99.2 C312.8,99.8 311,100.1 309.4,100.6 C307.9,101.1 306.8,102.4 305,102.7 C303.4,103 301.8,104.2 300.7,105.8 C299.7,107.2 298.7,108.8 297.3,109.7 C295.5,110.8 295.1,113 293.2,113.9 C294.9,115.8 295.8,113.8 296.8,113.4 C297,113.9 297.2,114.2 297.4,114.7 C298.3,114 299,113.3 299.6,112.9 C300.1,113.1 300.5,113.4 300.8,113.4 C303.1,113.5 305.5,113.6 307.8,113.8 C309.6,113.9 311.5,114.3 313.1,113.4 C315,112.3 316.8,113 318.3,113.5 C320.4,114.3 322.4,114.4 324.5,114.5 C325.2,114.5 326,114.8 326.6,114.9 L326.6,120.1 C326.2,120.6 325.8,121.2 325.4,121.8 C326.4,122.4 327.1,122.9 327.8,123.3 C328,122.7 328,121.9 328.3,121.7 C329.1,121.2 329.3,120.9 329.2,119.8 C329.1,119.2 330.2,118.4 330.8,117.7 C330.9,117.6 331.2,117.8 331.4,117.9 L331.4,120.5 C331.4,121.2 331.8,122.1 331.5,122.5 C330.6,123.4 331.3,124.4 331.2,125.4 C331.1,126.2 331.4,127.3 332.7,127.7 C332.7,126.4 333.8,125.3 332.4,123.9 C335.1,124.8 335.1,124.8 335.5,126 C335.1,126.2 334.6,126.4 333.8,126.8 C335.1,127.9 336.1,128.8 337.1,129.5 C337.4,129.7 338,129.5 338.4,129.3 C338.6,129.2 338.7,128.6 338.6,128.5 C337.3,127.5 338.4,126.9 339,126.3 C339.1,126.2 339.2,126 339.3,125.8 C338.7,125.4 338.2,125.1 337.7,124.8 C337.7,124.7 337.8,124.6 337.8,124.4 C338.4,124.5 339,124.6 339.7,124.7 C340,123.9 340.3,123.1 340.5,122.3 C340.9,119.8 341.2,117.3 341.6,114.8 C341.6,114.5 341.6,114.1 341.8,113.9 C342.8,112.9 342.7,111.6 342.8,110.3 C343,108.8 342.5,107.4 342.4,105.9 C341.8,104 342.3,102 342.4,100.1 L342.4,100.1 Z M306.2,112.8 L306.2,111.2 C307,111.6 307.7,111.9 308.6,112.3 C307.8,113.2 307,112.6 306.2,112.8 L306.2,112.8 Z M336.1,123.2 C335.9,123.1 335.8,123 335.6,123 C335.9,122.5 336.2,122 336.5,121.5 C336.6,121.5 336.7,121.6 336.8,121.6 C336.6,122.2 336.4,122.7 336.1,123.2 L336.1,123.2 Z" id="Shape" sketch:type="MSShapeGroup"></path>
            <path d="M330.2,144.6 C329.8,144.4 329.3,144.4 328.8,144.4 C329.1,143.7 329.4,143.1 329.4,142.9 C328.7,141.4 328.2,140.3 327.6,139.2 C327.5,138.9 327.2,138.5 327,138.5 C325.9,138.5 326.1,137.7 325.9,137.1 C325.7,136.7 325.1,136.4 324.7,136 L324.7,135.9 C324.7,135.8 324.6,135.8 324.6,135.7 C324.6,135.8 324.7,135.9 324.7,135.9 L324.7,135.9 C324.2,136.5 323.8,137.2 323.2,137.7 C321.9,138.9 320.8,140.2 320.8,142.1 C320.8,142.7 320.8,143.4 320.4,143.9 C319.5,145 320.1,145.7 320.9,146.5 C320.5,146.6 320.1,146.6 319.8,146.7 C318.6,149.4 317.5,152 316.4,154.6 C315.7,155 314.8,155.4 314.1,156 C312.7,157.4 311.2,158.2 309.1,157.9 L309.1,158.6 C308.2,158.8 307.3,159 306.4,159.2 C306.2,158.8 306,158.3 305.9,157.9 C305.1,157.8 304.4,157.7 303.8,157.6 C303.7,157.9 303.7,157.9 302.2,157.5 C301.7,157.7 301.2,158 300.3,158.4 C300.9,158.7 301.2,158.9 301.5,159 C300.8,160.3 300.8,160.3 302.2,161 C302.8,161.3 303.2,162.3 303.8,162.4 C304.4,162.5 305.1,161.5 305.7,161.5 C307.8,161.6 309.7,161.7 311.8,161.1 C313.2,160.7 314.6,160.6 315.2,158.9 C316.4,159.2 317.3,159.7 318.4,158.8 C319.4,158 320.9,157.7 321.9,156.8 C322.9,155.9 324.8,156.3 325,154.4 C325,154.1 326.5,153.9 326.5,153.6 C326.6,152.1 327.8,153.3 328.1,152.7 C328.9,151.5 329.7,150.4 330.7,149.4 C332.5,147.6 332.3,145.8 330.2,144.6 L330.2,144.6 Z" id="Shape" sketch:type="MSShapeGroup"></path>
            <path d="M332.3,134.6 C331.1,134.8 332,136.1 331.9,136.8 C331.9,137 331.8,137.1 331.8,137.2 C331.4,137.5 330.8,137.8 330.5,138.2 C330,138.9 330.2,140.2 330.9,140.5 C331.9,141 332.4,139.6 332.4,139.5 C332.3,137.9 333.7,138.4 334.1,137.8 C334.3,137.2 334.5,136.6 334.9,135.5 C334,135.3 333,134.5 332.3,134.6 L332.3,134.6 Z" id="Shape" sketch:type="MSShapeGroup"></path>
            <path d="M324.2,133.5 C324.3,133.4 323.6,132.8 323.2,132.3 C322.3,133.4 322.2,134.4 322.6,135.4 C323.1,136.6 323.9,135.1 324.6,135.5 C324.7,135.5 324.7,135.6 324.8,135.7 C324.5,135.1 323.6,134.5 324.2,133.5 L324.2,133.5 Z" id="Shape" sketch:type="MSShapeGroup"></path>
            <path d="M334.8,134.3 C335.2,134.7 335.6,135.1 336.1,135.7 C336.6,134.4 336.9,133.3 337.4,132 C335.4,131.8 335.4,133.4 334.8,134.3 L334.8,134.3 Z" id="Shape" sketch:type="MSShapeGroup"></path>
            <path d="M332.8,129.3 C332.4,129.8 332,130.3 331.3,131 C332.2,131.2 332.7,131.4 333.5,131.6 C333.2,130.7 333,130 332.8,129.3 L332.8,129.3 Z" id="Shape" sketch:type="MSShapeGroup"></path>
            <path d="M323.7,131.7 C324.3,132.1 324.6,132.3 325.1,132.6 C325.4,131.7 325.5,131.1 325.7,130.4 C325.6,130.3 325.4,130.2 325.3,130.2 C324.8,130.7 324.3,131.1 323.7,131.7 L323.7,131.7 Z" id="Shape" sketch:type="MSShapeGroup"></path>
            <path d="M331.2,141.6 C331.5,142.6 331.6,143.1 331.8,143.7 C332,143.6 332.3,143.6 332.4,143.5 C332.9,142.7 332.5,142.2 331.2,141.6 L331.2,141.6 Z" id="Shape" sketch:type="MSShapeGroup"></path>
            <path d="M325.5,124.3 C325.8,124.6 326,124.9 326.3,125.2 C326.4,125.1 326.6,124.9 326.7,124.8 C326.4,124.6 326.1,124.3 325.7,124.1 C325.7,124 325.5,124.3 325.5,124.3 L325.5,124.3 Z" id="Shape" sketch:type="MSShapeGroup"></path>
            <path d="M328.8,131.6 C328.7,132 328.5,132.4 328.4,132.8 C328.5,132.9 328.7,132.9 328.8,133 C329,132.6 329.2,132.2 329.4,131.8 C329.2,131.8 329,131.7 328.8,131.6 L328.8,131.6 Z" id="Shape" sketch:type="MSShapeGroup"></path>
            <path d="M325.9,135.3 C326,135.3 326.1,135.4 326.2,135.4 C326.4,135 326.6,134.5 326.7,134.1 C326.5,134.1 326.4,134 326.2,134 C326.1,134.4 326,134.9 325.9,135.3 L325.9,135.3 Z" id="Shape" sketch:type="MSShapeGroup"></path>
            <path d="M333.5,141.1 C333.3,141.2 333.1,141.4 333,141.5 C333.2,141.9 333.4,142.3 333.5,142.7 C333.8,142.4 333.9,142.1 333.8,141.9 C333.8,141.7 333.7,141.4 333.5,141.1 L333.5,141.1 Z" id="Shape" sketch:type="MSShapeGroup"></path>
            <path d="M116,222.9 L111,222.9 C110.3,222.9 109.7,223.5 109.7,224.2 L109.7,248 C109.7,248.7 110.3,249.3 111,249.3 C111.7,249.3 112.3,248.7 112.3,248 L112.3,237.7 L116,237.7 C119.4,237.7 122.3,234.9 122.3,231.4 L122.3,229.1 C122.2,225.7 119.4,222.9 116,222.9 L116,222.9 Z M119.6,231.5 C119.6,233.5 117.9,235.2 115.9,235.2 L112.2,235.2 L112.2,225.5 L115.9,225.5 C117.9,225.5 119.6,227.2 119.6,229.2 L119.6,231.5 L119.6,231.5 Z" id="Shape" sketch:type="MSShapeGroup"></path>
            <path d="M152.7,222.8 C149.3,222.8 146.4,225.6 146.4,229.1 L146.4,243.2 C146.4,246.6 149.2,249.5 152.7,249.5 C156.1,249.5 159,246.7 159,243.2 L159,229 C159,225.6 156.2,222.8 152.7,222.8 L152.7,222.8 Z M156.4,243.1 C156.4,245.1 154.7,246.8 152.7,246.8 C150.7,246.8 149,245.1 149,243.1 L149,229 C149,227 150.7,225.3 152.7,225.3 C154.7,225.3 156.4,227 156.4,229 L156.4,243.1 L156.4,243.1 Z" id="Shape" sketch:type="MSShapeGroup"></path>
            <path d="M187.8,248.1 C187.8,248.8 188.4,249.4 189.1,249.4 C189.8,249.4 190.4,248.8 190.4,248.1 L190.4,225.5 L194.5,225.5 C195.2,225.5 195.8,224.9 195.8,224.2 C195.8,223.5 195.2,222.9 194.5,222.9 L183.7,222.9 C183,222.9 182.4,223.5 182.4,224.2 C182.4,224.9 183,225.5 183.7,225.5 L187.8,225.5 L187.8,248.1 L187.8,248.1 Z" id="Shape" sketch:type="MSShapeGroup"></path>
            <path d="M230.9,222.9 L220.1,222.9 C219.4,222.9 218.8,223.5 218.8,224.2 C218.8,224.9 219.4,225.5 220.1,225.5 L224.2,225.5 L224.2,248.1 C224.2,248.8 224.8,249.4 225.5,249.4 C226.2,249.4 226.8,248.8 226.8,248.1 L226.8,225.5 L230.9,225.5 C231.6,225.5 232.2,224.9 232.2,224.2 C232.2,223.5 231.6,222.9 230.9,222.9 L230.9,222.9 Z" id="Shape" sketch:type="MSShapeGroup"></path>
            <path d="M266.5,225.5 C267.2,225.5 267.8,224.9 267.8,224.2 C267.8,223.5 267.2,222.9 266.5,222.9 L258.2,222.9 C257.5,222.9 256.9,223.5 256.9,224.2 L256.9,247.9 C256.9,248.6 257.5,249.2 258.2,249.2 L266.5,249.2 C267.2,249.2 267.8,248.6 267.8,247.9 C267.8,247.2 267.2,246.6 266.5,246.6 L259.5,246.6 L259.5,236.9 L265.7,236.9 C266.4,236.9 267,236.3 267,235.6 C267,234.9 266.4,234.3 265.7,234.3 L259.5,234.3 L259.5,225.4 L266.5,225.4 L266.5,225.5 Z" id="Shape" sketch:type="MSShapeGroup"></path>
            <path d="M301.4,237.3 C303.8,236.4 305.3,234.1 305.3,231.5 L305.3,229.2 C305.3,225.8 302.5,222.9 299,222.9 L294,222.9 C293.3,222.9 292.7,223.5 292.7,224.2 L292.7,248 C292.7,248.7 293.3,249.3 294,249.3 C294.7,249.3 295.3,248.7 295.3,248 L295.3,237.7 L298.7,237.7 L302.7,248.5 C302.9,249 303.4,249.3 303.9,249.3 C304.1,249.3 304.2,249.3 304.4,249.2 C305.1,248.9 305.4,248.2 305.1,247.5 L301.4,237.3 L301.4,237.3 Z M295.4,235.2 L295.4,225.5 L299.1,225.5 C301.1,225.5 302.8,227.2 302.8,229.2 L302.8,231.5 C302.8,233.5 301.1,235.2 299.1,235.2 L295.4,235.2 L295.4,235.2 Z" id="Shape" sketch:type="MSShapeGroup"></path>
        </g>
    </g>
</svg>