<?xml version="1.0" encoding="UTF-8"?>
<svg width="132px" height="34px" viewBox="0 0 132 34" version="1.1" xmlns="http://www.w3.org/2000/svg" xmlns:xlink="http://www.w3.org/1999/xlink">
    <defs>
        <linearGradient x1="100%" y1="0%" x2="0%" y2="100%" id="linearGradient-1">
            <stop stop-color="#FD7700" offset="0%"></stop>
            <stop stop-color="#FD4400" offset="100%"></stop>
        </linearGradient>
    </defs>
    <g id="Current-Web-App" stroke="none" stroke-width="1" fill="none" fill-rule="evenodd">
        <g id="Landing-Page-NEW" transform="translate(-40.000000, -530.000000)">
            <g id="Invitation" transform="translate(0.000000, 500.000000)">
                <g id="Navigation" transform="translate(40.000000, 30.000000)">
                    <g id="Page-1">
                        <path d="M25.2816,24 L32.7186,24 C33.1636,24 33.3256,24.046 33.4886,24.134 C33.6516,24.221 33.7796,24.349 33.8666,24.512 C33.9536,24.674 34.0006,24.836 34.0006,25.282 L34.0006,32.718 C34.0006,33.164 33.9536,33.326 33.8666,33.488 C33.7796,33.651 33.6516,33.779 33.4886,33.866 C33.3256,33.954 33.1636,34 32.7186,34 L25.2816,34 C24.8366,34 24.6746,33.954 24.5106,33.866 C24.3486,33.779 24.2206,33.651 24.1336,33.488 C24.0466,33.326 24.0006,33.164 24.0006,32.718 L24.0006,25.282 C24.0006,24.836 24.0466,24.674 24.1336,24.512 C24.2206,24.349 24.3486,24.221 24.5106,24.134 C24.6746,24.046 24.8366,24 25.2816,24 Z M25.2816,12 L32.7186,12 C33.1636,12 33.3256,12.046 33.4886,12.134 C33.6516,12.221 33.7796,12.349 33.8666,12.512 C33.9536,12.674 34.0006,12.836 34.0006,13.282 L34.0006,20.718 C34.0006,21.164 33.9536,21.326 33.8666,21.488 C33.7796,21.651 33.6516,21.779 33.4886,21.866 C33.3256,21.954 33.1636,22 32.7186,22 L25.2816,22 C24.8366,22 24.6746,21.954 24.5106,21.866 C24.3486,21.779 24.2206,21.651 24.1336,21.488 C24.0466,21.326 24.0006,21.164 24.0006,20.718 L24.0006,13.282 C24.0006,12.836 24.0466,12.674 24.1336,12.512 C24.2206,12.349 24.3486,12.221 24.5106,12.134 C24.6746,12.046 24.8366,12 25.2816,12 Z M25.2816,0 L32.7186,0 C33.1636,0 33.3256,0.046 33.4886,0.134 C33.6516,0.221 33.7796,0.349 33.8666,0.512 C33.9536,0.674 34.0006,0.836 34.0006,1.282 L34.0006,8.718 C34.0006,9.164 33.9536,9.326 33.8666,9.488 C33.7796,9.651 33.6516,9.779 33.4886,9.866 C33.3256,9.954 33.1636,10 32.7186,10 L25.2816,10 C24.8366,10 24.6746,9.954 24.5106,9.866 C24.3486,9.779 24.2206,9.651 24.1336,9.488 C24.0466,9.326 24.0006,9.164 24.0006,8.718 L24.0006,1.282 C24.0006,0.836 24.0466,0.674 24.1336,0.512 C24.2206,0.349 24.3486,0.221 24.5106,0.134 C24.6746,0.046 24.8366,0 25.2816,0 Z M13.2816,24 L20.7186,24 C21.1636,24 21.3256,24.046 21.4886,24.134 C21.6516,24.221 21.7796,24.349 21.8666,24.512 C21.9536,24.674 22.0006,24.836 22.0006,25.282 L22.0006,32.718 C22.0006,33.164 21.9536,33.326 21.8666,33.488 C21.7796,33.651 21.6516,33.779 21.4886,33.866 C21.3256,33.954 21.1636,34 20.7186,34 L13.2816,34 C12.8366,34 12.6746,33.954 12.5106,33.866 C12.3486,33.779 12.2206,33.651 12.1336,33.488 C12.0466,33.326 12.0006,33.164 12.0006,32.718 L12.0006,25.282 C12.0006,24.836 12.0466,24.674 12.1336,24.512 C12.2206,24.349 12.3486,24.221 12.5106,24.134 C12.6746,24.046 12.8366,24 13.2816,24 Z M13.2816,0 L20.7186,0 C21.1636,0 21.3256,0.046 21.4886,0.134 C21.6516,0.221 21.7796,0.349 21.8666,0.512 C21.9536,0.674 22.0006,0.836 22.0006,1.282 L22.0006,8.718 C22.0006,9.164 21.9536,9.326 21.8666,9.488 C21.7796,9.651 21.6516,9.779 21.4886,9.866 C21.3256,9.954 21.1636,10 20.7186,10 L13.2816,10 C12.8366,10 12.6746,9.954 12.5106,9.866 C12.3486,9.779 12.2206,9.651 12.1336,9.488 C12.0466,9.326 12.0006,9.164 12.0006,8.718 L12.0006,1.282 C12.0006,0.836 12.0466,0.674 12.1336,0.512 C12.2206,0.349 12.3486,0.221 12.5106,0.134 C12.6746,0.046 12.8366,0 13.2816,0 Z M1.2816,24 L8.7186,24 C9.1636,24 9.3256,24.046 9.4886,24.134 C9.6516,24.221 9.7796,24.349 9.8666,24.512 C9.9536,24.674 10.0006,24.836 10.0006,25.282 L10.0006,32.718 C10.0006,33.164 9.9536,33.326 9.8666,33.488 C9.7796,33.651 9.6516,33.779 9.4886,33.866 C9.3256,33.954 9.1636,34 8.7186,34 L1.2816,34 C0.8366,34 0.6746,33.954 0.5106,33.866 C0.3486,33.779 0.2206,33.651 0.1336,33.488 C0.0466,33.326 0.0006,33.164 0.0006,32.718 L0.0006,25.282 C0.0006,24.836 0.0466,24.674 0.1336,24.512 C0.2206,24.349 0.3486,24.221 0.5106,24.134 C0.6746,24.046 0.8366,24 1.2816,24 Z M1.2816,12 L8.7186,12 C9.1636,12 9.3256,12.046 9.4886,12.134 C9.6516,12.221 9.7796,12.349 9.8666,12.512 C9.9536,12.674 10.0006,12.836 10.0006,13.282 L10.0006,20.718 C10.0006,21.164 9.9536,21.326 9.8666,21.488 C9.7796,21.651 9.6516,21.779 9.4886,21.866 C9.3256,21.954 9.1636,22 8.7186,22 L1.2816,22 C0.8366,22 0.6746,21.954 0.5106,21.866 C0.3486,21.779 0.2206,21.651 0.1336,21.488 C0.0466,21.326 0.0006,21.164 0.0006,20.718 L0.0006,13.282 C0.0006,12.836 0.0466,12.674 0.1336,12.512 C0.2206,12.349 0.3486,12.221 0.5106,12.134 C0.6746,12.046 0.8366,12 1.2816,12 Z M1.2816,0 L8.7186,0 C9.1636,0 9.3256,0.046 9.4886,0.134 C9.6516,0.221 9.7796,0.349 9.8666,0.512 C9.9536,0.674 10.0006,0.836 10.0006,1.282 L10.0006,8.718 C10.0006,9.164 9.9536,9.326 9.8666,9.488 C9.7796,9.651 9.6516,9.779 9.4886,9.866 C9.3256,9.954 9.1636,10 8.7186,10 L1.2816,10 C0.8366,10 0.6746,9.954 0.5106,9.866 C0.3486,9.779 0.2206,9.651 0.1336,9.488 C0.0466,9.326 0.0006,9.164 0.0006,8.718 L0.0006,1.282 C0.0006,0.836 0.0466,0.674 0.1336,0.512 C0.2206,0.349 0.3486,0.221 0.5106,0.134 C0.6746,0.046 0.8366,0 1.2816,0 Z" id="Fill-1" fill="url(#linearGradient-1)"></path>
                        <path d="M52.3656,23.5386 C48.9786,23.5386 46.2326,20.7236 46.2326,17.2506 C46.2326,13.7786 48.9786,10.9636 52.3656,10.9636 C55.7536,10.9636 58.4986,13.7786 58.4986,17.2506 C58.4986,18.5986 58.0816,19.8446 57.3776,20.8686 L55.8066,19.2986 L54.2796,20.8256 L55.8646,22.4106 C54.8726,23.1196 53.6676,23.5386 52.3656,23.5386 M60.7546,17.2886 C60.7546,12.6016 57.0046,8.8036 52.3776,8.8036 C47.7516,8.8036 44.0006,12.6016 44.0006,17.2886 C44.0006,21.9746 47.7516,25.7726 52.3776,25.7726 C54.2956,25.7726 56.0566,25.1136 57.4696,24.0156 L59.2266,25.7726 L60.7546,24.2456 L58.9916,22.4826 C60.0926,21.0456 60.7546,19.2466 60.7546,17.2886" id="Fill-3" fill="#666666"></path>
                        <path d="M71.7094,14.3237 L73.8944,14.3237 L73.8944,25.5327 L71.7094,25.5327 L71.7094,23.8527 C71.0374,25.1967 69.4534,25.7727 68.2304,25.7727 C65.4214,25.7727 63.8854,23.9487 63.9084,20.8037 L63.9084,14.3237 L66.0934,14.3237 L66.0934,20.6597 C66.0934,22.5317 67.0054,23.6367 68.5414,23.6367 C70.1254,23.6367 71.7094,22.7727 71.7094,20.3717 L71.7094,14.3237 Z" id="Fill-5" fill="#666666"></path>
                        <path d="M82.6781,16.2197 C80.6611,16.2197 79.0301,17.6597 79.0301,19.8917 C79.0301,22.1007 80.6611,23.6367 82.6781,23.6367 C84.6701,23.6367 86.3981,22.2687 86.3981,19.8917 C86.3981,17.4917 84.4781,16.2197 82.6781,16.2197 L82.6781,16.2197 Z M86.4221,23.8047 C85.6781,25.0767 84.0461,25.7727 82.4861,25.7727 C79.4131,25.7727 76.7971,23.4687 76.7971,19.9157 C76.7971,16.3397 79.4131,14.0837 82.4861,14.0837 C84.0461,14.0837 85.6781,14.7317 86.4221,16.0037 L86.4221,14.3237 L88.5821,14.3237 L88.5821,25.5327 L86.4221,25.5327 L86.4221,23.8047 Z" id="Fill-7" fill="#666666"></path>
                        <path d="M97.3412,16.2197 C95.3252,16.2197 93.7172,17.6597 93.7172,19.8917 C93.7172,22.1007 95.3252,23.6367 97.3412,23.6367 C99.3092,23.6367 101.0622,22.2687 101.0622,19.8917 C101.0622,17.4917 99.1412,16.2197 97.3412,16.2197 L97.3412,16.2197 Z M101.0852,23.8047 C100.3412,25.0767 98.7092,25.7727 97.1492,25.7727 C94.0762,25.7727 91.4852,23.4687 91.4852,19.9157 C91.4852,16.3397 94.0532,14.0837 97.1252,14.0837 C98.7812,14.0837 100.3412,14.7317 101.0852,16.0037 L101.0852,8.2267 L103.2702,8.2267 L103.2702,25.5327 L101.0852,25.5327 L101.0852,23.8047 Z" id="Fill-9" fill="#666666"></path>
                        <path d="M109.1019,25.5327 L106.9169,25.5327 L106.9169,14.3237 L109.1019,14.3237 L109.1019,16.8437 C109.6769,14.8757 110.7569,14.0837 112.2219,14.0837 C113.0139,14.0837 113.8539,14.2997 114.1659,14.5157 L113.8299,16.5557 C113.2299,16.2677 112.6299,16.1717 112.1739,16.1717 C110.0139,16.1717 109.1019,18.4757 109.1019,21.4517 L109.1019,25.5327 Z" id="Fill-11" fill="#666666"></path>
                        <path d="M116.397,25.533 L118.557,25.533 L118.557,14.324 L116.397,14.324 L116.397,25.533 Z M117.477,8.779 C118.317,8.779 118.989,9.379 118.989,10.195 C118.989,11.011 118.317,11.611 117.477,11.611 C116.661,11.611 115.965,11.011 115.965,10.195 C115.965,9.379 116.661,8.779 117.477,8.779 L117.477,8.779 Z" id="Fill-13" fill="#666666"></path>
                        <path d="M127.389,14.0835 C129.093,14.0835 130.653,14.7315 131.709,15.8835 L130.053,17.2755 C129.381,16.6045 128.421,16.2195 127.389,16.2195 C125.372,16.2195 123.62,17.6365 123.62,19.8925 C123.62,22.1485 125.372,23.6605 127.389,23.6605 C128.421,23.6605 129.381,23.2525 130.053,22.5565 L131.733,23.9485 C130.677,25.1005 129.117,25.7725 127.389,25.7725 C124.197,25.7725 121.46,23.4445 121.46,19.8925 C121.46,16.3395 124.197,14.0835 127.389,14.0835" id="Fill-15" fill="#666666"></path>
                    </g>
                </g>
            </g>
        </g>
    </g>
</svg>
