<?xml version="1.0" encoding="utf-8"?>
<!-- Generator: Adobe Illustrator 19.0.0, SVG Export Plug-In . SVG Version: 6.00 Build 0)  -->
<svg version="1.1" id="Layer_1" xmlns="http://www.w3.org/2000/svg" xmlns:xlink="http://www.w3.org/1999/xlink" x="0px" y="0px"
	 width="50px" height="50px" viewBox="118 135 50 50" style="enable-background:new 118 135 50 50;" xml:space="preserve">
<style type="text/css">
	.st0{fill:#161614;}
</style>
<path class="st0" d="M143,135c-13.8,0-25,11.2-25,25.1c0,11.1,7.2,20.5,17.1,23.8c1.2,0.2,1.7-0.5,1.7-1.2c0-0.6,0-2.6,0-4.7
	c-7,1.5-8.4-3-8.4-3c-1.1-2.9-2.8-3.7-2.8-3.7c-2.3-1.6,0.2-1.5,0.2-1.5c2.5,0.2,3.8,2.6,3.8,2.6c2.2,3.8,5.8,2.7,7.3,2.1
	c0.2-1.6,0.9-2.7,1.6-3.4c-5.6-0.6-11.4-2.8-11.4-12.4c0-2.7,1-5,2.6-6.7c-0.3-0.6-1.1-3.2,0.2-6.6c0,0,2.1-0.7,6.9,2.6
	c2-0.6,4.1-0.8,6.3-0.8c2.1,0,4.3,0.3,6.3,0.8c4.8-3.3,6.9-2.6,6.9-2.6c1.4,3.5,0.5,6,0.2,6.6c1.6,1.8,2.6,4,2.6,6.7
	c0,9.6-5.8,11.8-11.4,12.4c0.9,0.8,1.7,2.3,1.7,4.7c0,3.4,0,6.1,0,6.9c0,0.7,0.5,1.5,1.7,1.2c9.9-3.3,17.1-12.7,17.1-23.8
	C168,146.2,156.8,135,143,135"/>
<path class="st0" d="M127.4,170.8c-0.1,0.1-0.3,0.2-0.4,0.1c-0.2-0.1-0.3-0.3-0.2-0.4c0.1-0.1,0.2-0.2,0.4-0.1
	C127.3,170.5,127.4,170.7,127.4,170.8"/>
<path class="st0" d="M128.6,171.9c-0.1,0.1-0.4,0.1-0.5-0.1c-0.2-0.2-0.2-0.4-0.1-0.5c0.1-0.1,0.3-0.1,0.5,0.1
	C128.7,171.5,128.7,171.8,128.6,171.9"/>
<path class="st0" d="M129.4,173.3c-0.2,0.1-0.4,0-0.6-0.2c-0.2-0.2-0.2-0.5,0-0.6c0.2-0.1,0.4,0,0.6,0.2
	C129.6,172.9,129.6,173.2,129.4,173.3"/>
<path class="st0" d="M130.9,174.9c-0.1,0.2-0.4,0.1-0.6-0.1c-0.2-0.2-0.3-0.5-0.1-0.6c0.1-0.2,0.4-0.1,0.6,0.1
	C130.9,174.5,131,174.8,130.9,174.9"/>
<path class="st0" d="M132.7,175.5c-0.1,0.2-0.3,0.3-0.6,0.2c-0.3-0.1-0.5-0.3-0.4-0.5c0.1-0.2,0.3-0.3,0.6-0.2
	C132.6,175.1,132.8,175.3,132.7,175.5"/>
<path class="st0" d="M134.8,175.7c0,0.2-0.2,0.4-0.5,0.4c-0.3,0-0.5-0.2-0.5-0.4c0-0.2,0.2-0.4,0.5-0.4
	C134.6,175.3,134.8,175.5,134.8,175.7"/>
<path class="st0" d="M136.9,175.6c0,0.2-0.2,0.4-0.5,0.5c-0.3,0.1-0.6-0.1-0.6-0.3c0-0.2,0.2-0.4,0.5-0.5
	C136.6,175.3,136.8,175.4,136.9,175.6"/>
</svg>
