<svg xmlns="http://www.w3.org/2000/svg" xmlns:xlink="http://www.w3.org/1999/xlink" x="0px" y="0px" width="32px" height="32px" viewBox="0 0 32 32"><g  transform="translate(0.5, 0.5)">
<polyline fill="none" stroke="#9e9e99" stroke-width="1" stroke-linecap="round" stroke-miterlimit="10" points="4,24 1,24 1,4 
17,4 " stroke-linejoin="round"/>
<polyline fill="none" stroke="#9e9e99" stroke-width="1" stroke-linecap="round" stroke-miterlimit="10" points="28,4 31,4 31,24 
11,24 " stroke-linejoin="round"/>
<line fill="none" stroke="#9e9e99" stroke-width="1" stroke-linecap="round" stroke-miterlimit="10" x1="11" y1="30" x2="21" y2="30" stroke-linejoin="round"/>
<path data-color="color-2" fill="none" stroke="#b02520" stroke-width="1" stroke-linecap="round" stroke-miterlimit="10" d="M27,16h-9
c-0.552,0-1-0.448-1-1V2c0-0.552,0.448-1,1-1h9c0.552,0,1,0.448,1,1v13C28,15.552,27.552,16,27,16z" stroke-linejoin="round"/>
<line data-color="color-2" fill="none" stroke="#b02520" stroke-width="1" stroke-linecap="round" stroke-miterlimit="10" x1="22" y1="13" x2="23" y2="13" stroke-linejoin="round"/>
<path data-color="color-2" fill="none" stroke="#b02520" stroke-width="1" stroke-linecap="round" stroke-miterlimit="10" d="M10,27H5
c-0.552,0-1-0.448-1-1V16c0-0.552,0.448-1,1-1h5c0.552,0,1,0.448,1,1v10C11,26.552,10.552,27,10,27z" stroke-linejoin="round"/>
<line data-color="color-2" fill="none" stroke="#b02520" stroke-width="1" stroke-linecap="round" stroke-miterlimit="10" x1="7" y1="24" x2="8" y2="24" stroke-linejoin="round"/>
<polyline fill="none" stroke="#9e9e99" stroke-width="1" stroke-linecap="round" stroke-miterlimit="10" points="18,30 18,28 
14,28 14,30 " stroke-linejoin="round"/>
</g></svg>