<svg xmlns="http://www.w3.org/2000/svg" xmlns:xlink="http://www.w3.org/1999/xlink" x="0px" y="0px" width="32px" height="32px" viewBox="0 0 32 32"><g  transform="translate(0.5, 0.5)">
<line data-cap="butt" data-color="color-2" fill="none" stroke="#b02520" stroke-width="1" stroke-miterlimit="10" x1="23" y1="28" x2="29" y2="22" stroke-linejoin="round" stroke-linecap="round"/>
<line data-cap="butt" data-color="color-2" fill="none" stroke="#b02520" stroke-width="1" stroke-miterlimit="10" x1="12" y1="5" x2="6" y2="11" stroke-linejoin="round" stroke-linecap="round"/>
<polyline data-color="color-2" fill="none" stroke="#b02520" stroke-width="1" stroke-linecap="round" stroke-miterlimit="10" points="
9.5,14.5 3,8 9,2 15.5,8.5 " stroke-linejoin="round"/>
<polyline data-color="color-2" fill="none" stroke="#b02520" stroke-width="1" stroke-linecap="round" stroke-miterlimit="10" points="
22.5,15.5 29,22 30,29 23,28 16.5,21.5 " stroke-linejoin="round"/>
<rect x="1.358" y="10.55" transform="matrix(0.7071 -0.7071 0.7071 0.7071 -6.4203 15.5)" fill="none" stroke="#9e9e99" stroke-width="1" stroke-linecap="round" stroke-miterlimit="10" width="28.284" height="9.899" stroke-linejoin="round"/>
<line fill="none" stroke="#9e9e99" stroke-width="1" stroke-linecap="round" stroke-miterlimit="10" x1="12" y1="12" x2="15" y2="15" stroke-linejoin="round"/>
<line fill="none" stroke="#9e9e99" stroke-width="1" stroke-linecap="round" stroke-miterlimit="10" x1="9" y1="15" x2="11" y2="17" stroke-linejoin="round"/>
<line fill="none" stroke="#9e9e99" stroke-width="1" stroke-linecap="round" stroke-miterlimit="10" x1="18" y1="6" x2="21" y2="9" stroke-linejoin="round"/>
<line fill="none" stroke="#9e9e99" stroke-width="1" stroke-linecap="round" stroke-miterlimit="10" x1="15" y1="9" x2="17" y2="11" stroke-linejoin="round"/>
<line fill="none" stroke="#9e9e99" stroke-width="1" stroke-linecap="round" stroke-miterlimit="10" x1="6" y1="18" x2="9" y2="21" stroke-linejoin="round"/></g></svg>