<svg xmlns="http://www.w3.org/2000/svg" xmlns:xlink="http://www.w3.org/1999/xlink" x="0px" y="0px" width="64px" height="64px" viewBox="0 0 64 64"><g >
<circle fill="#cacac4" cx="50" cy="36" r="7"/>
<circle fill="#cacac4" cx="14" cy="36" r="7"/>
<path fill="#cacac4" d="M24.543,49.726C22.442,48.482,18.907,47,14,47c-4.972,0-8.489,1.478-10.564,2.717
C1.934,50.613,1,52.26,1,54.014V60c0,0.553,0.447,1,1,1h24c0.553,0,1-0.447,1-1v-5.965C27,52.272,26.059,50.621,24.543,49.726z"/>
<path fill="#cacac4" d="M60.543,49.726C58.442,48.482,54.907,47,50,47c-4.972,0-8.489,1.478-10.564,2.717
C37.934,50.613,37,52.26,37,54.014V60c0,0.553,0.447,1,1,1h24c0.553,0,1-0.447,1-1v-5.965C63,52.272,62.059,50.621,60.543,49.726z"/>
<path data-color="color-2" fill="#cacac4" d="M42.707,5.293c-0.391-0.391-1.023-0.391-1.414,0L28,18.586l-5.293-5.293
c-0.391-0.391-1.023-0.391-1.414,0s-0.391,1.023,0,1.414l6,6C27.488,20.902,27.744,21,28,21s0.512-0.098,0.707-0.293l14-14
C43.098,6.316,43.098,5.684,42.707,5.293z"/>
</g></svg>