<svg xmlns="http://www.w3.org/2000/svg" xmlns:xlink="http://www.w3.org/1999/xlink" x="0px" y="0px" width="64px" height="64px" viewBox="0 0 64 64"><g >
<path data-color="color-2" fill="#cacac4" d="M61,4H3C1.895,4,1,4.895,1,6v10h62V6C63,4.895,62.105,4,61,4z M7,12c-1.105,0-2-0.895-2-2
c0-1.105,0.895-2,2-2s2,0.895,2,2C9,11.105,8.105,12,7,12z M14,12c-1.105,0-2-0.895-2-2c0-1.105,0.895-2,2-2s2,0.895,2,2
C16,11.105,15.105,12,14,12z M21,12c-1.105,0-2-0.895-2-2c0-1.105,0.895-2,2-2s2,0.895,2,2C23,11.105,22.105,12,21,12z"/>
<path fill="#cacac4" d="M1,18v40c0,1.105,0.895,2,2,2h58c1.105,0,2-0.895,2-2V18H1z M27,47c0,0.552-0.448,1-1,1H10
c-0.552,0-1-0.448-1-1V31c0-0.552,0.448-1,1-1h16c0.552,0,1,0.448,1,1V47z M42,47H32c-0.552,0-1-0.447-1-1s0.448-1,1-1h10
c0.552,0,1,0.447,1,1S42.552,47,42,47z M54,40H32c-0.552,0-1-0.447-1-1s0.448-1,1-1h22c0.552,0,1,0.447,1,1S54.552,40,54,40z M54,33
H32c-0.552,0-1-0.447-1-1s0.448-1,1-1h22c0.552,0,1,0.447,1,1S54.552,33,54,33z"/>
</g></svg>