<svg xmlns="http://www.w3.org/2000/svg" xmlns:xlink="http://www.w3.org/1999/xlink" x="0px" y="0px" width="24px" height="24px" viewBox="0 0 24 24"><g >
<path fill="#69696a" d="M7.05,22.946c-1.537,0-3.073-0.584-4.243-1.754c-2.339-2.34-2.339-6.146,0-8.485l3.213-3.121l1.394,1.435
l-3.203,3.111c-1.549,1.549-1.549,4.087,0.01,5.646c1.56,1.559,4.098,1.559,5.657,0l2.828-2.828
c0.755-0.756,1.171-1.761,1.171-2.829s-0.416-2.072-1.171-2.828L12,10.586l1.414-1.414l0.707,0.707
c1.133,1.133,1.757,2.64,1.757,4.242s-0.624,3.109-1.757,4.243l-2.828,2.828C10.124,22.362,8.587,22.946,7.05,22.946z"/>
<path data-color="color-2" fill="#69696a" d="M10.586,14.828l-0.707-0.707c-1.133-1.133-1.757-2.64-1.757-4.242S8.746,6.77,9.879,5.636
l2.828-2.828c2.339-2.34,6.146-2.34,8.485,0c2.339,2.34,2.339,6.146,0,8.485l-3.213,3.121l-1.394-1.435l3.203-3.111
c1.549-1.549,1.549-4.087-0.01-5.646c-1.56-1.559-4.098-1.559-5.657,0L11.293,7.05c-0.755,0.756-1.171,1.761-1.171,2.829
s0.416,2.072,1.171,2.828L12,13.414L10.586,14.828z"/>
</g></svg>