<?xml version="1.0" encoding="utf-8"?>
<!-- Generator: Adobe Illustrator 19.0.0, SVG Export Plug-In . SVG Version: 6.00 Build 0)  -->
<svg version="1.1" id="Layer_1" xmlns="http://www.w3.org/2000/svg" xmlns:xlink="http://www.w3.org/1999/xlink" x="0px" y="0px"
	 width="50px" height="50px" viewBox="13 34 50 50" style="enable-background:new 13 34 50 50;" xml:space="preserve">
<style type="text/css">
	.st0{fill:#00AFF0;}
</style>
<path class="st0" d="M45.8,83.6c-0.7-0.2-1.7-0.4-2.3-0.7c-0.7-0.3-1.5-0.3-4-0.2c-2.4,0.1-3.7,0-5.4-0.2
	c-9.1-1.6-16.4-8.1-19.1-17.1c-0.5-1.7-0.6-2.6-0.6-6.6c0-4.4-0.1-4.7-0.7-6.5c-3.3-8.9,3.4-18.2,13-18.2c1.9,0,4.3,0.6,5.7,1.2
	c0.9,0.5,1.5,0.6,5,0.6c3.2,0,4.5,0.1,6.1,0.6c7.2,1.8,13,6.4,16.1,12.8c1.9,3.9,2.6,8,2.2,12.6c-0.2,2.5-0.2,2.7,0.3,4.2
	c1.8,5.3,0.1,11.4-4.3,15c-1.4,1.1-4.1,2.4-5.8,2.8c-1.7,0.3-4.5,0.3-6.2-0.1L45.8,83.6L45.8,83.6z M42.7,75c3.8-0.8,7.1-3,8.3-5.7
	c1.6-3.3,1.1-7.1-1-9.5c-1.8-2-4.6-3.2-11.1-4.7c-4.3-1-5.4-1.5-6.3-2.5c-0.8-0.9-0.9-1.6-0.2-2.6c0.7-1.1,2.4-1.8,4.7-1.9
	c3.3-0.2,4.8,0.6,6.7,3.6c1.5,2.3,3,2.8,4.9,1.9c2.5-1.2,2.3-5.3-0.5-7.7c-2.6-2.1-5.5-3-10.3-3c-5,0-8.5,1-10.7,3.3
	c-1.8,1.8-2.2,2.8-2.2,5.6c0,2.9,0.3,3.8,2.3,5.5c2.1,1.9,3.8,2.6,9.9,4.1c4.3,1,5.5,1.6,6.5,2.7c0.5,0.6,0.7,1,0.7,2
	c0,1.1-0.1,1.4-1,2.3c-1.4,1.3-3.4,1.9-6.1,1.8c-3.1-0.2-4.5-1.1-6.1-4.3c-1.1-2.1-2.1-2.9-3.5-2.9c-3.3,0-4.5,2.7-2.7,6.2
	c1.5,3,4.5,5.1,8.2,5.9c2.3,0.5,7.3,0.5,9.5,0L42.7,75L42.7,75z"/>
</svg>
