<svg width="76" height="32" xmlns="http://www.w3.org/2000/svg"><path d="M51.314 21.611V2.516h14.855v5.332h-8.216v2.041h8.216v4.356h-8.216v2.046h8.216v5.32zm-29.688.468c-2.401 0-4.479-.862-6.177-2.56-1.716-1.718-2.588-3.795-2.588-6.176V2.516h6.395v10.829c0 1.492 1.208 2.273 2.401 2.273 1.095 0 2.274-.711 2.274-2.273V2.516h6.426v10.829c0 2.4-.86 4.479-2.558 6.177-1.695 1.695-3.773 2.557-6.173 2.557zm21.298-.468l-3.465-6.197-1.2 1.488v4.709H32.4V2.516h5.859v6.301l4.512-6.301h7.157l-6.567 8.492 6.612 10.603zM0 25.573c1.229-.038 2.271-.495 3.1-1.354.869-.935 1.289-2.017 1.289-3.305V2.516h6.427v18.398c0 3.016-1.074 5.65-3.195 7.832C5.474 30.895 2.979 31.961 0 32v-6.427zm74.146-11.328h-5.312V.474H76zm-5.312 2.046h5.312v5.32h-5.312z" fill="#FFDC0A"/></svg>