<svg width="132" height="34" xmlns="http://www.w3.org/2000/svg"><defs><linearGradient x1="100%" y1="0%" x2="0%" y2="100%" id="a"><stop stop-color="#FD7700" offset="0%"/><stop stop-color="#FD4400" offset="100%"/></linearGradient></defs><g fill="none" fill-rule="evenodd"><path d="M25.282 24h7.437c.445 0 .607.046.77.134a.906.906 0 0 1 .378.378c.087.162.134.324.134.77v7.436c0 .446-.047.608-.134.77a.906.906 0 0 1-.378.378c-.163.088-.325.134-.77.134h-7.437c-.445 0-.607-.046-.771-.134a.91.91 0 0 1-.377-.378c-.087-.162-.133-.324-.133-.77v-7.436c0-.446.046-.608.133-.77a.91.91 0 0 1 .377-.378c.164-.088.326-.134.77-.134zm0-12h7.437c.445 0 .607.046.77.134a.906.906 0 0 1 .378.378c.087.162.134.324.134.77v7.436c0 .446-.047.608-.134.77a.906.906 0 0 1-.378.378c-.163.088-.325.134-.77.134h-7.437c-.445 0-.607-.046-.771-.134a.91.91 0 0 1-.377-.378c-.087-.162-.133-.324-.133-.77v-7.436c0-.446.046-.608.133-.77a.91.91 0 0 1 .377-.378c.164-.088.326-.134.77-.134zm0-12h7.437c.445 0 .607.046.77.134a.906.906 0 0 1 .378.378c.087.162.134.324.134.77v7.436c0 .446-.047.608-.134.77a.906.906 0 0 1-.378.378c-.163.088-.325.134-.77.134h-7.437c-.445 0-.607-.046-.771-.134a.91.91 0 0 1-.377-.378c-.087-.162-.133-.324-.133-.77V1.282c0-.446.046-.608.133-.77a.91.91 0 0 1 .377-.378c.164-.088.326-.134.77-.134zm-12 24h7.437c.445 0 .607.046.77.134a.906.906 0 0 1 .378.378c.087.162.134.324.134.77v7.436c0 .446-.047.608-.134.77a.906.906 0 0 1-.378.378c-.163.088-.325.134-.77.134h-7.437c-.445 0-.607-.046-.771-.134a.91.91 0 0 1-.377-.378c-.087-.162-.133-.324-.133-.77v-7.436c0-.446.046-.608.133-.77a.91.91 0 0 1 .377-.378c.164-.088.326-.134.77-.134zm0-24h7.437c.445 0 .607.046.77.134a.906.906 0 0 1 .378.378c.087.162.134.324.134.77v7.436c0 .446-.047.608-.134.77a.906.906 0 0 1-.378.378c-.163.088-.325.134-.77.134h-7.437c-.445 0-.607-.046-.771-.134a.91.91 0 0 1-.377-.378c-.087-.162-.133-.324-.133-.77V1.282c0-.446.046-.608.133-.77a.91.91 0 0 1 .377-.378c.164-.088.326-.134.77-.134zm-12 24h7.437c.445 0 .607.046.77.134a.906.906 0 0 1 .378.378c.087.162.134.324.134.77v7.436c0 .446-.047.608-.134.77a.906.906 0 0 1-.378.378c-.163.088-.325.134-.77.134H1.282c-.445 0-.607-.046-.771-.134a.91.91 0 0 1-.377-.378c-.087-.162-.133-.324-.133-.77v-7.436c0-.446.046-.608.133-.77a.91.91 0 0 1 .377-.378c.164-.088.326-.134.77-.134zm0-12h7.437c.445 0 .607.046.77.134a.906.906 0 0 1 .378.378c.087.162.134.324.134.77v7.436c0 .446-.047.608-.134.77a.906.906 0 0 1-.378.378c-.163.088-.325.134-.77.134H1.282c-.445 0-.607-.046-.771-.134a.91.91 0 0 1-.377-.378c-.087-.162-.133-.324-.133-.77v-7.436c0-.446.046-.608.133-.77a.91.91 0 0 1 .377-.378c.164-.088.326-.134.77-.134zm0-12h7.437c.445 0 .607.046.77.134a.906.906 0 0 1 .378.378c.087.162.134.324.134.77v7.436c0 .446-.047.608-.134.77a.906.906 0 0 1-.378.378c-.163.088-.325.134-.77.134H1.282c-.445 0-.607-.046-.771-.134a.91.91 0 0 1-.377-.378C.047 9.326 0 9.164 0 8.718V1.282C0 .836.047.674.134.512A.91.91 0 0 1 .51.134C.675.046.837 0 1.28 0z" fill="url(#a)"/><path d="M52.366 23.539c-3.387 0-6.133-2.815-6.133-6.288 0-3.472 2.746-6.287 6.133-6.287 3.388 0 6.133 2.815 6.133 6.287a6.366 6.366 0 0 1-1.121 3.618l-1.571-1.57-1.527 1.527 1.585 1.585a5.994 5.994 0 0 1-3.5 1.128m8.39-6.25c0-4.687-3.75-8.485-8.377-8.485-4.626 0-8.377 3.798-8.377 8.485 0 4.686 3.75 8.484 8.377 8.484a8.265 8.265 0 0 0 5.092-1.757l1.757 1.757 1.528-1.527-1.763-1.763a8.512 8.512 0 0 0 1.763-5.194m10.955-2.965h2.184v11.209H71.71v-1.68c-.672 1.344-2.256 1.92-3.479 1.92-2.809 0-4.345-1.824-4.322-4.97v-6.48h2.185v6.337c0 1.872.912 2.977 2.448 2.977 1.584 0 3.168-.864 3.168-3.265v-6.048zm10.968 1.896c-2.017 0-3.648 1.44-3.648 3.672 0 2.209 1.631 3.745 3.648 3.745 1.992 0 3.72-1.368 3.72-3.745 0-2.4-1.92-3.672-3.72-3.672zm3.744 7.585c-.744 1.272-2.376 1.968-3.936 1.968-3.073 0-5.689-2.304-5.689-5.857 0-3.576 2.616-5.832 5.69-5.832 1.56 0 3.191.648 3.935 1.92v-1.68h2.16v11.209h-2.16v-1.728zm10.919-7.585c-2.016 0-3.624 1.44-3.624 3.672 0 2.209 1.608 3.745 3.624 3.745 1.968 0 3.721-1.368 3.721-3.745 0-2.4-1.92-3.672-3.72-3.672zm3.744 7.585c-.744 1.272-2.376 1.968-3.936 1.968-3.073 0-5.664-2.304-5.664-5.857 0-3.576 2.568-5.832 5.64-5.832 1.656 0 3.216.648 3.96 1.92V8.227h2.185v17.306h-2.185v-1.728zm8.017 1.728h-2.185v-11.21h2.185v2.52c.575-1.967 1.655-2.76 3.12-2.76.792 0 1.632.217 1.944.433l-.336 2.04a3.9 3.9 0 0 0-1.656-.384c-2.16 0-3.072 2.304-3.072 5.28v4.08zm7.295 0h2.16V14.324h-2.16v11.209zm1.08-16.754c.84 0 1.512.6 1.512 1.416s-.672 1.416-1.512 1.416c-.816 0-1.512-.6-1.512-1.416s.696-1.416 1.512-1.416zm9.912 5.305c1.704 0 3.264.648 4.32 1.8l-1.656 1.392c-.672-.671-1.632-1.056-2.664-1.056-2.017 0-3.769 1.417-3.769 3.672 0 2.256 1.752 3.768 3.769 3.768a3.696 3.696 0 0 0 2.664-1.104l1.68 1.392c-1.056 1.152-2.616 1.825-4.344 1.825-3.192 0-5.929-2.328-5.929-5.88 0-3.553 2.737-5.81 5.929-5.81" fill="#666"/></g></svg>