<svg xmlns="http://www.w3.org/2000/svg" width="302.673" height="63.526" overflow="visible"><path d="M302.673 61.757c-.007.837-.637 1.756-1.717 1.77H240.85c-1.072-.014-1.703-.938-1.703-1.77V1.771c.007-.839.638-1.758 1.711-1.771h60.105c1.073.014 1.703.939 1.703 1.771l.007 59.986z" fill="#ed057e"/><path d="M39.43 19.26c-6.463 0-15.038 2.202-15.038 8.891 0 .546.308.852.724.852h7.664c.737 0 .992-.199 1.113-.872.141-.529.563-2.739 5.095-2.739 3.218 0 5.934.58 5.934 4.52 0 3.74-5.223 3.55-10.841 4.392-5.685.771-11.364 2.574-11.364 10.13 0 6.842 5.035 10.003 11.364 10.003 4.063 0 8.327-1.1 11.23-4.126l-.028 1.589c0 .657-.134 1.633.845 1.633h7.107a.866.866 0 0 0 .851-.848V28.75c-.001-8.009-8.005-9.49-14.656-9.49m5.49 21.363c0 2.002-.254 7.681-7.422 7.681-2.97 0-5.612-.838-5.612-4.261 0-3.353 2.582-4.321 5.417-4.904 2.843-.513 6.068-.58 7.617-1.935v3.419zM162.092 19.26c-6.47 0-15.045 2.202-15.045 8.891 0 .546.308.852.717.852h7.669c.738 0 .993-.199 1.113-.872.147-.529.563-2.739 5.096-2.739 3.219 0 5.934.58 5.934 4.52 0 3.74-5.229 3.55-10.842 4.392-5.685.771-11.363 2.574-11.363 10.13 0 6.842 5.035 10.003 11.363 10.003 4.063 0 8.328-1.1 11.23-4.126l-.027 1.592c0 .657-.133 1.633.846 1.633h7.106a.867.867 0 0 0 .853-.848V28.75c.001-8.009-7.999-9.49-14.65-9.49m5.485 21.363c0 2.002-.255 7.681-7.422 7.681-2.971 0-5.619-.838-5.619-4.261 0-3.353 2.589-4.321 5.425-4.904 2.843-.513 6.067-.58 7.616-1.935v3.419zm22.507 12.913h-7.463a.865.865 0 0 1-.852-.845V8.354c0-.455.328-.908.852-.908h7.463c.521 0 .851.453.851.908v44.337a.868.868 0 0 1-.851.845m-85.047-33.157h-7.472a.869.869 0 0 0-.852.852v31.462c0 .455.396.845.852.845h7.472c.462 0 .845-.39.845-.845V21.23a.859.859 0 0 0-.845-.851m0-12.893h-7.472a.862.862 0 0 0-.852.842v5.983c0 .456.396.852.852.852h7.472a.861.861 0 0 0 .845-.852V8.328a.853.853 0 0 0-.845-.842m-13.232.748a.753.753 0 0 0-.758-.748h-7.663a.747.747 0 0 0-.751.748l-.02 15.41a.297.297 0 0 1-.241.131c-.081 0-.168-.054-.221-.107-2.193-2.896-5.833-4.368-9.521-4.368-9.815 0-14.784 8.324-14.784 17.295 0 9.231 4.901 17.884 14.978 17.884 3.996 0 7.529-1.357 9.708-4.509a.295.295 0 0 1 .557.131v2.688c0 .412.334.747.75.747h7.214c.416 0 .75-.335.75-.747V8.234zM75.084 47.573c-5.686 0-8.072-5.487-8.072-10.718 0-5.491 2.065-10.656 8.072-10.656 5.94 0 7.871 5.165 7.871 10.59.001 5.487-1.803 10.784-7.871 10.784m69.121 5.511l-13.59-20.526a.302.302 0 0 1 .093-.344l10.901-10.55a.75.75 0 0 0-.536-1.284l-8.401-.01a.866.866 0 0 0-.597.241l-10.848 10.901v-.004a.285.285 0 0 1-.241.132c-.147 0-.255-.114-.275-.255V8.294a.855.855 0 0 0-.845-.848h-7.475a.864.864 0 0 0-.845.848v44.398c0 .455.396.844.845.844h7.475a.854.854 0 0 0 .845-.844l-.006-10.514c0-.127.074-.228.181-.274l3.091-2.987a.29.29 0 0 1 .503.071l8.649 14.063s.006.003.013.003a.84.84 0 0 0 .751.482h10.07a.268.268 0 0 0 .234-.123.288.288 0 0 0 .054-.161.336.336 0 0 0-.046-.168m67.333-33.929c-10.131 0-17.043 7.613-17.043 17.623 0 10.328 6.523 17.556 17.043 17.556 7.221 0 12.551-3.063 15.26-10.207 0 0 .054-.161.054-.265a.755.755 0 0 0-.757-.758h-6.477a.768.768 0 0 0-.697.463l.014-.024c-.846 1.935-3.654 3.886-7.074 3.886-4.988 0-7.824-2.602-8.568-8.162a.29.29 0 0 1 .289-.292h23.432a.75.75 0 0 0 .751-.755c.354-9.99-5.124-19.065-16.227-19.065m6.92 13.886a.305.305 0 0 1-.241.127h-14.228a.295.295 0 0 1-.295-.291c.188-2.622 2.064-6.815 7.59-6.815 4.338 0 6.449 2.39 7.221 6.815a.345.345 0 0 1-.047.164M8.703 25.311l.014-4.385a.76.76 0 0 0-.758-.754v-.007H.751v.007a.755.755 0 0 0-.751.754v31.863c0 .412.335.747.751.747h7.663a.75.75 0 0 0 .758-.747l-.006-14.291c0-5.876 2.326-10.717 9.037-10.717.805 0 1.704.044 2.548.178a.752.752 0 0 0 .751-.751v-7.063c0-.308-.147-.556-.416-.67-.489-.157-1.207-.215-1.589-.215-4.13 0-8.333 2.511-10.258 6.215a.284.284 0 0 1-.248.127.29.29 0 0 1-.288-.291" fill="#163a74"/><path d="M279.02 29.876c5.162-.918 8.059-3.234 8.059-8.655 0-3.329-1.2-6.855-3.942-8.81-3.454-2.417-7.308-2.417-11.351-2.417h-18.257a.868.868 0 0 0-.858.848v41.844c0 .455.396.851.858.851h19.417c4.116 0 7.516-.066 11.041-2.413 3.393-2.223 5.156-5.487 5.156-9.534 0-6.461-3.915-10.735-10.123-11.714M263.116 17.43h6.511c4.05 0 6.792 1.327 6.792 5.169 0 3.966-2.555 5.347-6.792 5.347h-6.511V17.43zm13.302 27.092c-1.576 1.458-3.661 1.572-5.813 1.572h-7.49V33.946h7.423c2.347 0 4.639.12 6.202 1.874 1.045 1.17 1.635 2.624 1.635 4.146 0 1.634-.656 3.387-1.957 4.556" fill="#FFF"/></svg>