<svg xmlns="http://www.w3.org/2000/svg" version="1" width="535" height="456" viewBox="-0.642 -0.936 535 456"><path d="M41.728 454.886c-14.019 0-25.62-.412-34.638-10.213-9.127-9.764-7.62-20.408-5.414-33.143L67.317 39.401c2.043-11.522 4.118-21.19 15.451-30.138C94.159.369 104.886 0 117.608 0l374.717.035c13.988 0 25.656.404 34.678 10.178 9.049 9.826 7.619 20.479 5.344 33.205l-65.611 372.058c-2.043 11.531-4.148 21.244-15.521 30.146-11.359 8.887-22.078 9.264-34.77 9.264H41.728z" fill="#294293" fill-rule="evenodd"/><path d="M457.274 277.839c3.406-.281 6.025.168 7.832 2.074 1.898 2.004 2.209 4.281 1.629 7.727l-1.252 7.137c-.514 3.006-1.402 4.736-3.607 6.609-2.219 1.871-5.045 2.584-8.482 3.129-5.813.816-12.316 1.354-22.424 1.354-50.938 0-75.533-34.77-75.533-73.592 0-38.795 24.596-73.573 75.533-73.573 9.5 0 14.875.448 18.791.984 3.123.413 5.545 1.538 7.039 3.103 1.912 1.908 2.412 4.447 2.412 7.787v4.527c0 3.445-.271 5.748-2.17 7.795-1.938 2.039-4.158 2.584-7.352 2.338l-1.359-.088c-26.168-1.916-50.193 11.629-50.193 47.021 0 29.98 18.102 46.582 43.074 46.582 4.967 0 10.518-.369 14.326-.746l1.736-.168zm-320.066 26.676c3.406 0 6.192-.141 8.846-2.453 2.584-2.381 2.654-4.965 2.654-8.023v-99.133c0-3.059.145-5.643 2.729-7.998 2.584-2.381 5.41-2.443 8.776-2.443h14.15c3.406 0 6.231-.105 8.82-2.451 2.584-2.383 2.689-4.967 2.689-8.025v-3.674c0-3.102-.105-5.66-2.689-7.998-2.588-2.382-5.414-2.496-8.82-2.496h-93.91c-3.375 0-6.192.114-8.815 2.496-2.624 2.337-2.689 4.896-2.689 7.998v3.674c0 3.059.066 5.643 2.689 8.025 2.624 2.346 5.44 2.451 8.815 2.451h14.15c3.34 0 6.192.063 8.82 2.443 2.584 2.355 2.689 4.939 2.689 7.998v99.133c0 3.059.097 5.643 2.681 8.023 2.553 2.313 5.449 2.453 8.815 2.453h19.6zm60.645-105.355c0-3.023.097-5.643 2.72-7.998 2.584-2.338 5.41-2.443 8.776-2.443h14.7c3.366 0 6.231-.105 8.78-2.461 2.624-2.373 2.755-4.922 2.755-7.988v-7.955c0-3.102.07-5.66 2.694-7.998 2.544-2.382 5.401-2.496 8.776-2.496h9.25c51.218 0 75.578 30.701 75.578 72.351 0 41.643-24.359 72.344-75.578 72.344h-46.956c-3.366 0-6.192-.141-8.776-2.453-2.588-2.381-2.72-4.965-2.72-8.023v-94.88h.001z" fill="#fff" fill-rule="evenodd"/><path d="M238.511 270.009c0 3.094.101 5.678 2.689 7.998 2.624 2.381 5.44 2.451 8.815 2.451h1.767c25.119 0 39.846-18.105 39.818-47.338.027-29.268-14.699-47.373-39.818-47.373h-1.767c-3.375 0-6.192.115-8.815 2.461-2.588 2.348-2.689 4.957-2.689 7.99v73.811z" fill="#294293" fill-rule="evenodd"/></svg>