<svg id="Layer_1" xmlns="http://www.w3.org/2000/svg" width="50" height="50" viewBox="118 135 50 50"><style>.st0{fill:#161614}</style><path class="st0" d="M143 135c-13.8 0-25 11.2-25 25.1 0 11.1 7.2 20.5 17.1 23.8 1.2.2 1.7-.5 1.7-1.2V178c-7 1.5-8.4-3-8.4-3-1.1-2.9-2.8-3.7-2.8-3.7-2.3-1.6.2-1.5.2-1.5 2.5.2 3.8 2.6 3.8 2.6 2.2 3.8 5.8 2.7 7.3 2.1.2-1.6.9-2.7 1.6-3.4-5.6-.6-11.4-2.8-11.4-12.4 0-2.7 1-5 2.6-6.7-.3-.6-1.1-3.2.2-6.6 0 0 2.1-.7 6.9 2.6 2-.6 4.1-.8 6.3-.8 2.1 0 4.3.3 6.3.8 4.8-3.3 6.9-2.6 6.9-2.6 1.4 3.5.5 6 .2 6.6 1.6 1.8 2.6 4 2.6 6.7 0 9.6-5.8 11.8-11.4 12.4.9.8 1.7 2.3 1.7 4.7v6.9c0 .7.5 1.5 1.7 1.2 9.9-3.3 17.1-12.7 17.1-23.8-.2-13.9-11.4-25.1-25.2-25.1"/><path class="st0" d="M127.4 170.8c-.1.1-.3.2-.4.1-.2-.1-.3-.3-.2-.4.1-.1.2-.2.4-.1.1.1.2.3.2.4m1.2 1.1c-.1.1-.4.1-.5-.1-.2-.2-.2-.4-.1-.5.1-.1.3-.1.5.1.2.1.2.4.1.5m.8 1.4c-.2.1-.4 0-.6-.2-.2-.2-.2-.5 0-.6.2-.1.4 0 .6.2.2.2.2.5 0 .6m1.5 1.6c-.1.2-.4.1-.6-.1-.2-.2-.3-.5-.1-.6.1-.2.4-.1.6.1.1.2.2.5.1.6m1.8.6c-.1.2-.3.3-.6.2-.3-.1-.5-.3-.4-.5.1-.2.3-.3.6-.2.3.1.5.3.4.5m2.1.2c0 .2-.2.4-.5.4s-.5-.2-.5-.4.2-.4.5-.4.5.2.5.4m2.1-.1c0 .2-.2.4-.5.5-.3.1-.6-.1-.6-.3 0-.2.2-.4.5-.5.3 0 .5.1.6.3"/></svg>