<svg id="Layer_1" xmlns="http://www.w3.org/2000/svg" width="50" height="40" viewBox="545 461 50 40"><style>.st0{fill:#5da8dc;stroke:#5da8dc;stroke-width:.5}</style><path class="st0" d="M578.4 461h2.4l.9.2c.6.1 1.1.3 1.6.4s.9.4 1.4.6c.4.2.8.5 1.2.7.4.2.7.5.9.8.3.3.7.3 1.3.2s1.2-.3 1.9-.6c.7-.2 1.3-.5 2-.8.7-.3 1.1-.5 1.2-.6.1-.1.2-.1.2-.1v.7c0 .1-.2.4-.4.9-.3.5-.6 1-1 1.6s-.8.9-1.1 1.2l-.6.6c-.1.1-.2.2-.4.3l-.2.1h.2l1.3-.3 2.4-.6c.8-.2 1.2-.4 1.2-.4h.4s-.2.3-.6.8c-.4.5-.6.7-.6.8l-.1.1-1 1c-.6.6-1.2 1.1-1.7 1.5-.6.5-.9 1-.9 1.7s0 1.4-.1 2.2c-.1.8-.2 1.7-.3 2.7-.2 1-.4 2-.8 3.3-.3 1.2-.8 2.4-1.3 3.6-.5 1.2-1 2.2-1.6 3.1s-1 1.7-1.5 2.3c-.5.6-.9 1.2-1.4 1.8-.5.6-1.1 1.2-1.8 1.9l-1.2 1.2c-.1.1-.4.3-.9.7-.5.4-1.1.8-1.7 1.3-.6.4-1.1.8-1.6 1.1-.5.3-1.1.6-1.8 1s-1.5.7-2.3 1c-.8.3-1.7.6-2.6.9-.9.3-1.8.5-2.6.6-.8.1-1.8.3-2.9.4l-1.6.2h-4c-.2 0-.8-.1-1.9-.2-1.1-.1-1.9-.3-2.5-.4-.6-.1-1.5-.4-2.8-.8-1.2-.4-2.3-.8-3.1-1.3-.9-.4-1.4-.7-1.6-.8-.2-.1-.5-.2-.7-.4l-.4-.2h.2c.1 0 .5 0 1.1.1h1.9c.7 0 1.4-.1 2.1-.2s1.5-.3 2.5-.5 1.8-.6 2.7-.9c.8-.3 1.4-.6 1.7-.8.3-.2.9-.5 1.5-.9l1-.7h-1.1c-.2 0-.6-.1-1.1-.2-.5-.1-1-.3-1.6-.5-.6-.2-1.1-.5-1.6-.8-.5-.3-.9-.6-1.1-.8l-.9-.9c-.4-.4-.7-.8-1-1.2-.3-.4-.5-.9-.8-1.4l-.4-.8v-.2h.2l.5.1c.3 0 .8.1 1.6 0 .7 0 1.2 0 1.5-.1.3 0 .4-.1.5-.1h.3-.5c-.1 0-.2 0-.3-.1-.2 0-.6-.2-1.2-.5-.7-.3-1.2-.6-1.6-.8-.4-.3-.8-.6-1.1-.9-.4-.3-.7-.7-1.2-1.2-.4-.5-.8-1.1-1.1-1.8-.3-.7-.6-1.3-.7-1.9s-.3-1.2-.3-1.8l-.1-.9.7.3c.5.2 1 .4 1.7.5.7.1 1.1.2 1.2.2h.6s-.1-.1-.4-.3c-.2-.2-.5-.4-.8-.7-.3-.3-.5-.6-.8-.9-.3-.3-.5-.7-.7-1l-.7-1.4c-.2-.6-.4-1.1-.5-1.7-.1-.6-.2-1.1-.2-1.7v-1.4c0-.4.1-.9.3-1.4.1-.5.3-1 .6-1.6l.4-.8v-.2l.6.7c.4.4.9.9 1.4 1.5.6.5.9.8.9.9.1 0 .1.1.2.2s.4.4.9.8 1.2.9 2 1.4c.8.5 1.7 1.1 2.8 1.6 1 .5 2.1 1 3.2 1.4 1.2.4 2 .7 2.4.8.5.1 1.3.3 2.4.5s2 .3 2.5.4c.6.1 1 .1 1.2.1h.3v-.2l-.1-.6c-.1-.4-.1-.9-.1-1.6s.1-1.3.2-1.8c.1-.6.3-1.1.5-1.7s.4-1 .6-1.4c.2-.3.5-.7.8-1.2.3-.4.8-.9 1.3-1.4.5-.5 1.1-.9 1.8-1.3s1.3-.7 1.9-.8c.6-.2 1.1-.3 1.4-.4s1-1.1 1-1.1z"/></svg>