<?xml version="1.0" encoding="UTF-8" standalone="no"?>
<svg width="1024px" height="420px" viewBox="0 0 1024 420" version="1.1" xmlns="http://www.w3.org/2000/svg" xmlns:xlink="http://www.w3.org/1999/xlink" xmlns:sketch="http://www.bohemiancoding.com/sketch/ns">
    <!-- Generator: Sketch 3.3.3 (12081) - http://www.bohemiancoding.com/sketch -->
    <title>bio-cover</title>
    <desc>Created with Sketch.</desc>
    <defs></defs>
    <g id="Page-1" stroke="none" stroke-width="1" fill="none" fill-rule="evenodd" sketch:type="MSPage">
        <g id="bio-cover" sketch:type="MSArtboardGroup">
            <g id="Group" sketch:type="MSLayerGroup" transform="translate(239.078548, 210.000000) rotate(-4.000000) translate(-239.078548, -210.000000) translate(120.578548, 20.500000)">
                <path d="M216.742862,3.62244338 L8.11695646,3.62244338 C3.68952567,3.62244338 0.0670822848,7.24488676 0.0670822848,11.6723176 L0.0670822848,366.40344 C0.0670822848,370.83087 3.68952567,374.453314 8.11695646,374.453314 L216.742862,374.453314 C227.811439,374.453314 236.867548,365.397205 236.867548,354.328628 L236.867548,23.7471288 C236.867548,12.6785518 227.811439,3.62244338 216.742862,3.62244338 L216.742862,3.62244338 Z" id="Shape" stroke="#443D2F" stroke-width="4" sketch:type="MSShapeGroup"></path>
                <rect id="Rectangle-path" fill="#443D2F" sketch:type="MSShapeGroup" x="188.031644" y="0.201246854" width="16.6364066" height="377.807428"></rect>
                <g transform="translate(191.855335, 3.354114)" id="Shape" stroke="#D3C49F" stroke-width="2" sketch:type="MSShapeGroup">
                    <path d="M0.335411424,0.268329139 L0.335411424,371.0992"></path>
                    <path d="M4.49451308,371.0992 L4.49451308,0.268329139"></path>
                    <path d="M8.72069703,0.268329139 L8.72069703,371.0992"></path>
                </g>
                <path d="M10.4648364,374.453314 L11.4710707,313.207188 L12.477305,374.453314 L10.4648364,374.453314 Z" id="Shape" fill="#443D2F" sketch:type="MSShapeGroup"></path>
                <path d="M16.1668306,374.453314 L17.1730649,350.773267 L18.1792992,374.453314 L16.1668306,374.453314 Z" id="Shape" fill="#443D2F" sketch:type="MSShapeGroup"></path>
                <path d="M54.7391444,3.62244338 L53.7329101,46.4209411 L52.7266759,3.62244338 L54.7391444,3.62244338 Z" id="Shape" fill="#443D2F" sketch:type="MSShapeGroup"></path>
                <path d="M164.083269,3.62244338 L163.077034,20.25885 L162.0708,3.62244338 L164.083269,3.62244338 Z" id="Shape" fill="#443D2F" sketch:type="MSShapeGroup"></path>
                <path d="M126.517189,374.453314 L127.523423,347.083742 L128.529658,374.453314 L126.517189,374.453314 Z" id="Shape" fill="#443D2F" sketch:type="MSShapeGroup"></path>
                <path d="M157.710452,3.62244338 L156.704217,31.2603447 L155.697983,3.62244338 L157.710452,3.62244338 Z" id="Shape" fill="#443D2F" sketch:type="MSShapeGroup"></path>
            </g>
            <g id="Group" sketch:type="MSLayerGroup" transform="translate(588.649604, 165.401689) rotate(-44.000000) translate(-588.649604, -165.401689) translate(430.000000, 148.295707)">
                <path d="M123.29724,1.67705712 C123.29724,1.67705712 111.624922,0.469575994 101.562579,0.469575994 C91.5002365,0.469575994 80.2974949,2.07955083 71.5767979,2.07955083 C62.8561009,2.07955083 56.9528598,1.14039884 54.9403913,1.14039884 C52.9279227,1.14039884 51.7204416,1.07331656 51.7204416,1.81122169 L51.7204416,12.8797987 L51.7204416,23.9483757 C51.7204416,24.7533631 52.9279227,24.6191985 54.9403913,24.6191985 C56.9528598,24.6191985 62.8561009,23.6800465 71.5767979,23.6800465 C80.2974949,23.6800465 91.5673188,25.2900214 101.562579,25.2900214 C111.624922,25.2900214 123.29724,24.0825403 123.29724,24.0825403 C123.29724,24.0825403 125.242626,26.0279265 127.188012,24.0825403 L127.188012,12.8127164 L127.188012,1.54289255 C125.242626,-0.268329139 123.29724,1.67705712 123.29724,1.67705712 L123.29724,1.67705712 Z" id="Shape" stroke="#443D2F" stroke-width="4" fill="#443D2F" sketch:type="MSShapeGroup"></path>
                <path d="M56.8186952,1.20748113 L56.8186952,24.6191985" id="Shape" stroke="#D3C49F" stroke-width="2" sketch:type="MSShapeGroup"></path>
                <path d="M61.1119615,1.60997484 L61.1119615,24.2167048" id="Shape" stroke="#D3C49F" stroke-width="2" sketch:type="MSShapeGroup"></path>
                <path d="M65.4052277,2.07955083 L65.4052277,23.7471288" id="Shape" stroke="#D3C49F" stroke-width="2" sketch:type="MSShapeGroup"></path>
                <path d="M69.6314116,2.07955083 L69.6314116,23.7471288" id="Shape" stroke="#D3C49F" stroke-width="2" sketch:type="MSShapeGroup"></path>
                <path d="M73.9246779,2.07955083 L73.9246779,23.7471288" id="Shape" stroke="#D3C49F" stroke-width="2" sketch:type="MSShapeGroup"></path>
                <path d="M78.2179441,2.07955083 L78.2179441,23.7471288" id="Shape" stroke="#D3C49F" stroke-width="2" sketch:type="MSShapeGroup"></path>
                <path d="M82.5112103,1.54289255 L82.5112103,24.2837871" id="Shape" stroke="#D3C49F" stroke-width="2" sketch:type="MSShapeGroup"></path>
                <path d="M86.7373943,1.20748113 L86.7373943,24.6191985" id="Shape" stroke="#D3C49F" stroke-width="2" sketch:type="MSShapeGroup"></path>
                <path d="M51.7875239,22.5396477 C32.8032373,22.5396477 10.1965073,15.0264318 10.1965073,15.0264318 L10.1965073,10.8002479 C10.1965073,10.8002479 32.8032373,3.28703196 51.7875239,3.28703196" id="Shape" stroke="#443D2F" stroke-width="4" sketch:type="MSShapeGroup"></path>
                <rect id="Rectangle-path" stroke="#443D2F" stroke-width="2" sketch:type="MSShapeGroup" x="4.02493709" y="11.2698238" width="6.1715702" height="3.35411424"></rect>
                <rect id="Rectangle-path" fill="#443D2F" sketch:type="MSShapeGroup" x="0.603740563" y="12.0748113" width="3.42119653" height="1.67705712"></rect>
                <path d="M123.29724,1.67705712 L123.29724,24.2167048" id="Shape" stroke="#D3C49F" stroke-width="2" sketch:type="MSShapeGroup"></path>
                <path d="M123.29724,1.67705712 C123.29724,1.67705712 111.624922,0.469575994 101.562579,0.469575994 C91.5002365,0.469575994 80.2974949,2.07955083 71.5767979,2.07955083 C62.8561009,2.07955083 56.9528598,1.14039884 54.9403913,1.14039884 C52.9279227,1.14039884 51.7204416,1.07331656 51.7204416,1.81122169 L51.7204416,12.8797987 L51.7204416,23.9483757 C51.7204416,24.7533631 52.9279227,24.6191985 54.9403913,24.6191985 C56.9528598,24.6191985 62.8561009,23.6800465 71.5767979,23.6800465 C80.2974949,23.6800465 91.5673188,25.2900214 101.562579,25.2900214 C111.624922,25.2900214 123.29724,24.0825403 123.29724,24.0825403 C123.29724,24.0825403 125.242626,26.0279265 127.188012,24.0825403 L127.188012,12.8127164 L127.188012,1.54289255 C125.242626,-0.268329139 123.29724,1.67705712 123.29724,1.67705712 L123.29724,1.67705712 Z" id="Shape" stroke="#443D2F" stroke-width="4" sketch:type="MSShapeGroup"></path>
                <rect id="Rectangle-path" stroke="#443D2F" stroke-width="4" sketch:type="MSShapeGroup" x="127.255094" y="2.07955083" width="132.085019" height="21.667578"></rect>
                <path d="M255.851834,2.07955083 L255.851834,23.7471288" id="Shape" stroke="#443D2F" stroke-width="2" sketch:type="MSShapeGroup"></path>
                <rect id="Rectangle-path" fill="#443D2F" sketch:type="MSShapeGroup" x="186.15334" y="6.37281706" width="69.6984939" height="13.0810455"></rect>
                <rect id="Rectangle-path" stroke="#443D2F" stroke-width="2" sketch:type="MSShapeGroup" x="127.255094" y="9.79401358" width="58.8982461" height="6.23865249"></rect>
                <g transform="translate(126.785518, 11.403988)" id="Shape" stroke="#443D2F" sketch:type="MSShapeGroup">
                    <path d="M0.469575994,0.469575994 L59.3678221,0.469575994"></path>
                    <path d="M0.469575994,2.54912682 L59.3678221,2.54912682"></path>
                </g>
                <path d="M298.516167,22.4054831 C298.516167,23.1433883 297.912427,23.8812934 297.174522,24.1496225 C285.09971,26.2962556 272.689488,26.2962556 260.614677,24.1496225 C259.876771,23.9483757 259.273031,23.1433883 259.273031,22.4054831 L259.273031,3.42119653 C259.273031,2.68329139 259.876771,1.94538626 260.614677,1.67705712 C272.689488,-0.469575994 285.09971,-0.469575994 297.174522,1.67705712 C297.912427,1.87830397 298.516167,2.68329139 298.516167,3.42119653 L298.516167,22.4054831 L298.516167,22.4054831 Z" id="Shape" stroke="#443D2F" stroke-width="4" fill="#443D2F" sketch:type="MSShapeGroup"></path>
                <path d="M298.516167,4.29326623 C303.413174,4.29326623 308.310181,4.56159537 313.207188,5.16533593 C315.420903,5.50074736 317.232125,7.58029818 317.232125,9.7269313 L317.232125,15.9655838 C317.232125,18.1122169 315.420903,20.25885 313.207188,20.5271792 C308.310181,21.1309197 303.413174,21.3992489 298.516167,21.3992489 L298.516167,4.29326623 L298.516167,4.29326623 Z" id="Shape" stroke="#443D2F" stroke-width="4" sketch:type="MSShapeGroup"></path>
                <path d="M298.516167,7.37905133 C301.669035,7.37905133 304.821902,7.58029818 307.907687,7.91570961 C309.316415,8.11695646 310.456814,9.45860216 310.456814,10.8673301 L310.456814,14.8922672 C310.456814,16.3009952 309.316415,17.6426409 307.907687,17.8438878 C304.75482,18.2463815 301.669035,18.4476283 298.516167,18.380546 L298.516167,7.37905133 L298.516167,7.37905133 Z" id="Shape" fill="#443D2F" sketch:type="MSShapeGroup"></path>
                <rect id="Rectangle-path" fill="#443D2F" sketch:type="MSShapeGroup" x="204.600969" y="30.1199459" width="92.5735531" height="4.02493709"></rect>
                <path d="M281.678514,25.7595974 C282.215172,26.2962556 282.483501,26.8999962 282.483501,27.5708191 C282.483501,28.8453825 282.013925,29.9857813 280.336868,30.5895219 L280.336868,31.1932624 L293.417914,31.1932624 L293.417914,25.7595974 L281.678514,25.7595974 L281.678514,25.7595974 Z" id="Shape" fill="#443D2F" sketch:type="MSShapeGroup"></path>
                <path d="M214.730394,27.1683254 C212.248349,27.1683254 209.162564,30.5895219 209.162564,30.5895219 L218.218673,30.5895219 C218.218673,30.6566042 217.212438,27.1683254 214.730394,27.1683254 L214.730394,27.1683254 Z" id="Shape" fill="#443D2F" sketch:type="MSShapeGroup"></path>
            </g>
            <g id="Group" sketch:type="MSLayerGroup" transform="translate(791.728171, 193.327957)" stroke="#443D2F">
                <ellipse id="Oval" stroke-width="3" sketch:type="MSShapeGroup" cx="94.3847747" cy="94.451857" rx="84.5236789" ry="84.5236789"></ellipse>
                <ellipse id="Oval" stroke-width="4" sketch:type="MSShapeGroup" cx="94.3847747" cy="94.451857" rx="94.3847747" ry="94.3847747"></ellipse>
                <path d="M158.448357,94.451857 C158.448357,129.871303 129.737139,158.515439 94.3847747,158.515439 C58.9653284,158.515439 30.3211927,129.804221 30.3211927,94.451857 C30.3211927,59.0324106 59.0324106,30.388275 94.3847747,30.388275 C129.804221,30.388275 158.448357,59.0994929 158.448357,94.451857 L158.448357,94.451857 Z" id="Shape" stroke-width="3" sketch:type="MSShapeGroup"></path>
                <path d="M41.1885229,129.602974 L147.513944,129.602974" id="Shape" stroke-width="3" sketch:type="MSShapeGroup"></path>
                <path d="M79.6937544,167.034889 C84.4565966,167.974041 89.3536034,168.510699 94.3847747,168.510699 C99.4159461,168.510699 104.312953,167.974041 109.075795,167.034889" id="Shape" stroke-width="14" sketch:type="MSShapeGroup"></path>
            </g>
        </g>
    </g>
</svg>