<?xml version="1.0" encoding="UTF-8" standalone="no"?>
<svg width="483px" height="29px" viewBox="0 0 483 29" version="1.1" xmlns="http://www.w3.org/2000/svg" xmlns:xlink="http://www.w3.org/1999/xlink" xmlns:sketch="http://www.bohemiancoding.com/sketch/ns">
    <!-- Generator: Sketch 3.3.3 (12081) - http://www.bohemiancoding.com/sketch -->
    <title>Group</title>
    <desc>Created with Sketch.</desc>
    <defs></defs>
    <g id="Page-1" stroke="none" stroke-width="1" fill="none" fill-rule="evenodd" sketch:type="MSPage">
        <g id="Creative-Tools-Shapes---Brown-copy" sketch:type="MSLayerGroup" transform="translate(-224.000000, -2358.000000)">
            <g id="Group" transform="translate(231.000000, 2360.000000)" sketch:type="MSShapeGroup">
                <path d="M422.8,23.4 L38.3,23.4 L0.3,12.6 L38.3,1.9 L422.8,1.9 L422.8,23.4 Z" id="Shape" stroke="#443D2F" stroke-width="4"></path>
                <path d="M475.5,17.5 C475.5,20.3 473.3,22.5 470.5,22.5 L457.6,22.5 C454.8,22.5 452.6,20.3 452.6,17.5 L452.6,7.8 C452.6,5 454.8,2.8 457.6,2.8 L470.5,2.8 C473.3,2.8 475.5,5 475.5,7.8 L475.5,17.5 L475.5,17.5 Z" id="Shape" fill="#443D2F"></path>
                <rect id="Rectangle-path" stroke="#443D2F" stroke-width="4" fill="#D3C49F" x="422.8" y="0.9" width="37.2" height="23.5"></rect>
                <g transform="translate(38.000000, 8.000000)" id="Shape" stroke="#443D2F" stroke-width="3">
                    <path d="M0.3,0.4 L384.8,0.4"></path>
                    <path d="M0.3,8.9 L384.8,8.9"></path>
                </g>
                <g transform="translate(427.000000, 0.000000)" id="Shape" stroke="#443D2F">
                    <path d="M0.9,0.9 L0.9,24.4"></path>
                    <path d="M3.9,0.9 L3.9,24.4"></path>
                    <path d="M6.9,0.9 L6.9,24.4"></path>
                    <path d="M9.9,0.9 L9.9,24.4"></path>
                    <path d="M12.9,0.9 L12.9,24.4"></path>
                    <path d="M15.9,0.9 L15.9,24.4"></path>
                    <path d="M18.9,0.9 L18.9,24.4"></path>
                    <path d="M21.9,0.9 L21.9,24.4"></path>
                    <path d="M24.9,0.9 L24.9,24.4"></path>
                    <path d="M27.9,0.9 L27.9,24.4"></path>
                </g>
                <path d="M38.3,1.9 L38.3,23.4" id="Shape" stroke="#443D2F" stroke-width="3"></path>
                <path d="M0.3,12.6 L16.5,8 L16.5,17.1 L0.3,12.6 Z" id="Shape" fill="#443D2F"></path>
            </g>
        </g>
    </g>
</svg>